<svg xmlns="http://www.w3.org/2000/svg" viewBox="0 0 360 340" width="360" height="340" style="--hueso:#d8dae4; --acento:#6d7080">
<g fill="var(--acento)" opacity="0.92" stroke="var(--acento)" stroke-width="7" stroke-linejoin="round"><path d="M166,132 Q161.4,122.6 158,121 Q154.5,119.3 151,118.3 Q147.5,117.3 144,116.8 Q140.5,116.2 137,116 Q133.6,115.7 130.2,115.6 Q126.9,115.6 123.6,115.6 Q120.3,115.7 117.1,115.8 Q113.9,116 110.8,116.2 Q107.6,116.3 104.5,116.6 Q101.5,116.8 98.4,117.1 Q95.3,117.5 92.3,117.9 Q89.2,118.4 86.3,119 Q83.3,119.7 80.5,120.7 Q77.7,121.6 75.1,122.9 Q72.5,124.2 70.3,125.8 Q68,127.4 68,127.4 Q68,127.4 70.6,126.6 Q73.2,125.8 75.8,125.4 Q78.5,125 81.2,125 Q84,124.9 86.7,125.2 Q89.5,125.4 92.3,125.9 Q95.1,126.3 98,126.9 Q100.9,127.5 103.8,128.2 Q106.8,128.8 109.8,129.4 Q112.8,130.1 115.9,130.7 Q119,131.4 122.1,132 Q125.2,132.6 128.4,133.2 Q131.5,133.8 134.6,134.4 Q137.8,134.9 140.9,135.4 Q144.1,136 147.3,136.4 Q150.5,136.8 153.8,136.8 Q157.2,136.9 161.6,134.5 L166,132 Z"/><path d="M132.5,124.8 Q127.4,123.3 125.7,124 Q124,124.6 122.5,125.5 Q120.9,126.4 119.5,127.5 Q118.1,128.5 116.8,129.6 Q115.5,130.7 114.2,131.9 Q113,133.1 111.8,134.3 Q110.7,135.6 109.6,136.9 Q108.5,138.2 107.6,139.5 Q106.6,140.9 105.8,142.3 Q104.9,143.7 104.2,145.2 Q103.5,146.7 102.9,148.2 Q102.4,149.7 102.1,151.3 Q101.9,152.8 101.9,154.4 Q101.9,155.9 102.1,157.3 Q102.4,158.8 103,160 Q103.6,161.3 103.6,161.3 Q103.6,161.3 103.4,160 Q103.3,158.6 103.5,157.3 Q103.7,156 104.1,154.7 Q104.5,153.5 105.2,152.3 Q105.8,151.2 106.6,150.1 Q107.4,149 108.4,148 Q109.4,147.1 110.4,146.1 Q111.5,145.2 112.6,144.3 Q113.8,143.4 115,142.5 Q116.2,141.6 117.5,140.8 Q118.7,139.9 120,139 Q121.3,138.2 122.6,137.3 Q124,136.4 125.3,135.4 Q126.6,134.5 127.9,133.4 Q129.2,132.4 130.4,131.1 Q131.6,129.9 132.1,127.3 L132.5,124.8 Z"/><path d="M107.2,122.6 Q106.6,117.9 105.5,116.8 Q104.4,115.6 103.1,114.7 Q101.8,113.7 100.5,112.9 Q99.1,112.1 97.7,111.5 Q96.3,110.8 94.8,110.3 Q93.3,109.8 91.8,109.4 Q90.3,109 88.8,108.7 Q87.3,108.4 85.8,108.3 Q84.3,108.2 82.8,108.3 Q81.4,108.3 79.9,108.5 Q78.5,108.6 77.1,109 Q75.7,109.3 74.5,109.8 Q73.2,110.4 72,111.1 Q70.9,111.7 69.9,112.6 Q69,113.4 68.2,114.4 Q67.5,115.3 67.5,115.3 Q67.5,115.3 68.4,114.7 Q69.4,114.1 70.5,113.6 Q71.6,113.2 72.8,112.9 Q73.9,112.7 75.1,112.6 Q76.3,112.5 77.5,112.6 Q78.6,112.7 79.8,113 Q81,113.2 82.2,113.5 Q83.4,113.9 84.6,114.3 Q85.7,114.8 86.9,115.3 Q88,115.8 89.2,116.4 Q90.3,117 91.4,117.7 Q92.6,118.3 93.7,119 Q94.9,119.7 96.1,120.4 Q97.3,121.2 98.6,121.8 Q99.9,122.5 101.3,123 Q102.7,123.6 105,123.1 L107.2,122.6 Z"/><path d="M166,122 Q165.7,113.1 163.8,110.5 Q162,107.9 159.8,105.7 Q157.7,103.4 155.4,101.4 Q153.2,99.3 150.8,97.4 Q148.4,95.6 146,93.8 Q143.5,92.1 140.9,90.5 Q138.4,88.8 135.8,87.4 Q133.2,86 130.5,84.7 Q127.9,83.5 125.2,82.4 Q122.5,81.4 119.7,80.6 Q117,79.7 114.2,79.2 Q111.5,78.7 108.8,78.5 Q106,78.3 103.4,78.4 Q100.8,78.5 98.2,79 Q95.7,79.4 93.4,80.2 Q91.1,81 91.1,81 Q91.1,81 93.5,80.9 Q95.9,80.9 98.3,81.1 Q100.7,81.4 103,82 Q105.4,82.6 107.6,83.5 Q109.9,84.4 112.1,85.6 Q114.2,86.7 116.3,88.1 Q118.5,89.5 120.5,91 Q122.6,92.5 124.6,94.2 Q126.6,95.9 128.5,97.7 Q130.5,99.5 132.5,101.4 Q134.5,103.3 136.5,105.3 Q138.5,107.2 140.5,109.2 Q142.6,111.2 144.8,113.2 Q147,115.2 149.4,117.1 Q151.7,119 154.4,120.6 Q157.1,122.3 161.6,122.1 L166,122 Z"/><path d="M143.4,101.4 Q139.8,98.5 138.2,98.5 Q136.5,98.4 134.8,98.7 Q133.2,99 131.6,99.4 Q130,99.9 128.5,100.6 Q127,101.3 125.6,102.1 Q124.2,102.9 123,103.9 Q121.7,104.8 120.6,105.9 Q119.4,106.9 118.4,108 Q117.4,109.1 116.5,110.3 Q115.6,111.4 114.8,112.6 Q114,113.8 113.4,115.1 Q112.7,116.3 112.2,117.6 Q111.7,118.8 111.3,120.1 Q111,121.4 110.8,122.7 Q110.7,123.9 110.7,125.2 Q110.8,126.4 110.8,126.4 Q110.8,126.4 111.1,125.2 Q111.4,124.1 111.9,123 Q112.4,121.9 113.1,120.9 Q113.7,119.9 114.5,118.9 Q115.3,118 116.2,117.1 Q117.1,116.3 118.1,115.5 Q119,114.7 120.1,113.9 Q121.1,113.2 122.2,112.5 Q123.3,111.8 124.4,111.2 Q125.5,110.6 126.7,110 Q127.8,109.5 129.1,109 Q130.3,108.6 131.5,108.2 Q132.8,107.7 134,107.3 Q135.3,107 136.7,106.5 Q138,106.1 139.4,105.6 Q140.8,105 142.1,103.2 L143.4,101.4 Z"/><path d="M125.2,88 Q125.2,83.9 124.2,82.7 Q123.2,81.6 122.1,80.6 Q120.9,79.7 119.6,78.9 Q118.3,78.2 117,77.6 Q115.7,77.1 114.3,76.7 Q113,76.3 111.6,76 Q110.3,75.7 109,75.6 Q107.7,75.4 106.4,75.4 Q105.1,75.3 103.9,75.3 Q102.6,75.3 101.4,75.3 Q100.1,75.4 98.9,75.5 Q97.7,75.7 96.6,75.9 Q95.4,76.1 94.3,76.5 Q93.2,76.8 92.1,77.3 Q91.1,77.8 90.3,78.5 Q89.4,79.1 89.4,79.1 Q89.4,79.1 90.4,78.8 Q91.4,78.5 92.4,78.3 Q93.5,78.1 94.5,78.1 Q95.6,78.1 96.7,78.3 Q97.7,78.4 98.8,78.6 Q99.9,78.8 101,79.1 Q102.1,79.4 103.2,79.7 Q104.3,80.1 105.4,80.4 Q106.5,80.8 107.6,81.2 Q108.7,81.6 109.8,82.1 Q110.8,82.5 111.9,83.1 Q112.9,83.6 113.9,84.1 Q114.9,84.7 115.9,85.3 Q117,85.8 118,86.5 Q119,87.1 120.2,87.6 Q121.3,88.2 123.3,88.1 L125.2,88 Z"/><path d="M166,112 Q168.1,104.7 167.1,101.9 Q166.2,99.1 164.8,96.6 Q163.4,94.1 161.7,91.8 Q160,89.5 158.1,87.4 Q156.2,85.3 154.2,83.5 Q152.2,81.6 150,80 Q147.9,78.4 145.7,76.9 Q143.5,75.5 141.3,74.2 Q139.1,73 136.9,71.9 Q134.7,70.7 132.6,69.7 Q130.4,68.7 128.2,67.8 Q126,66.9 123.8,66.2 Q121.6,65.4 119.4,64.9 Q117.2,64.3 115,63.9 Q112.8,63.5 110.7,63.4 Q108.5,63.2 108.5,63.2 Q108.5,63.2 110.5,63.9 Q112.5,64.6 114.4,65.6 Q116.3,66.5 118.2,67.6 Q120.1,68.7 121.9,70 Q123.7,71.2 125.5,72.6 Q127.2,73.9 129,75.4 Q130.7,76.9 132.5,78.4 Q134.2,80 135.9,81.6 Q137.6,83.2 139.2,84.8 Q140.9,86.5 142.4,88.3 Q144,90 145.5,91.8 Q147,93.7 148.4,95.6 Q149.9,97.4 151.3,99.4 Q152.7,101.4 154.2,103.4 Q155.6,105.4 157.3,107.4 Q159,109.4 162.5,110.7 L166,112 Z"/><path d="M151.6,89.5 Q149.7,86.1 148.4,85.5 Q147,84.8 145.6,84.5 Q144.2,84.2 142.7,84 Q141.3,83.9 139.9,83.9 Q138.6,83.9 137.2,84 Q135.9,84.1 134.6,84.2 Q133.3,84.4 132,84.6 Q130.8,84.8 129.6,85.1 Q128.4,85.4 127.2,85.6 Q126,85.9 124.8,86.3 Q123.6,86.6 122.5,87 Q121.3,87.4 120.3,88 Q119.2,88.5 118.2,89.2 Q117.3,89.8 116.5,90.6 Q115.7,91.4 115.1,92.3 Q114.5,93.2 114.5,93.2 Q114.5,93.2 115.3,92.5 Q116.1,91.9 117,91.4 Q117.9,90.9 118.9,90.6 Q119.9,90.2 121,90.1 Q122,89.9 123.1,89.8 Q124.2,89.7 125.3,89.7 Q126.5,89.7 127.6,89.7 Q128.8,89.8 130,89.8 Q131.2,89.9 132.4,89.9 Q133.6,90 134.8,90.1 Q136,90.2 137.2,90.3 Q138.4,90.4 139.6,90.5 Q140.8,90.6 142,90.7 Q143.2,90.8 144.5,91 Q145.7,91.1 147,91.1 Q148.2,91.2 149.9,90.3 L151.6,89.5 Z"/><path d="M136.7,76.5 Q137.4,73.1 136.9,71.9 Q136.3,70.8 135.7,69.7 Q135,68.7 134.2,67.8 Q133.4,66.8 132.6,66 Q131.8,65.1 131,64.3 Q130.1,63.5 129.3,62.8 Q128.4,62 127.5,61.3 Q126.7,60.6 125.8,60 Q124.9,59.3 124,58.7 Q123,58.1 122.1,57.5 Q121.1,57 120.2,56.6 Q119.2,56.1 118.1,55.8 Q117.1,55.5 116.1,55.4 Q115,55.3 114,55.4 Q113.1,55.5 112.1,55.8 Q111.2,56.1 111.2,56.1 Q111.2,56.1 112.2,56 Q113.1,56 114,56.2 Q114.9,56.4 115.7,56.7 Q116.6,57.1 117.3,57.6 Q118.1,58.1 118.8,58.7 Q119.6,59.3 120.2,60 Q120.9,60.7 121.6,61.5 Q122.2,62.2 122.9,63 Q123.6,63.8 124.2,64.6 Q124.9,65.5 125.5,66.3 Q126.2,67.2 126.9,68 Q127.5,68.9 128.2,69.8 Q128.9,70.6 129.6,71.5 Q130.3,72.4 131,73.2 Q131.8,74.1 132.6,74.9 Q133.4,75.7 135,76.1 L136.7,76.5 Z"/><path d="M194,132 Q202.8,136.9 206.2,136.8 Q209.5,136.8 212.7,136.4 Q215.9,136 219.1,135.4 Q222.2,134.9 225.4,134.4 Q228.5,133.8 231.6,133.2 Q234.8,132.6 237.9,132 Q241,131.4 244.1,130.7 Q247.2,130.1 250.2,129.4 Q253.2,128.8 256.2,128.2 Q259.1,127.5 262,126.9 Q264.9,126.3 267.7,125.9 Q270.5,125.4 273.3,125.2 Q276,124.9 278.8,125 Q281.5,125 284.2,125.4 Q286.8,125.8 289.4,126.6 Q292,127.4 292,127.4 Q292,127.4 289.7,125.8 Q287.5,124.2 284.9,122.9 Q282.3,121.6 279.5,120.7 Q276.7,119.7 273.7,119 Q270.8,118.4 267.7,117.9 Q264.7,117.5 261.6,117.1 Q258.5,116.8 255.5,116.6 Q252.4,116.3 249.2,116.2 Q246.1,116 242.9,115.8 Q239.7,115.7 236.4,115.6 Q233.1,115.6 229.8,115.6 Q226.4,115.7 223,116 Q219.5,116.2 216,116.8 Q212.5,117.3 209,118.3 Q205.5,119.3 202,121 Q198.6,122.6 196.3,127.3 L194,132 Z"/><path d="M227.5,124.8 Q228.4,129.9 229.6,131.1 Q230.8,132.4 232.1,133.4 Q233.4,134.5 234.7,135.4 Q236,136.4 237.4,137.3 Q238.7,138.2 240,139 Q241.3,139.9 242.5,140.8 Q243.8,141.6 245,142.5 Q246.2,143.4 247.4,144.3 Q248.5,145.2 249.6,146.1 Q250.6,147.1 251.6,148 Q252.6,149 253.4,150.1 Q254.2,151.2 254.8,152.3 Q255.5,153.5 255.9,154.7 Q256.3,156 256.5,157.3 Q256.7,158.6 256.6,160 Q256.4,161.3 256.4,161.3 Q256.4,161.3 257,160 Q257.6,158.8 257.9,157.3 Q258.1,155.9 258.1,154.4 Q258.1,152.8 257.9,151.3 Q257.6,149.7 257.1,148.2 Q256.5,146.7 255.8,145.2 Q255.1,143.7 254.2,142.3 Q253.4,140.9 252.4,139.5 Q251.5,138.2 250.4,136.9 Q249.3,135.6 248.2,134.3 Q247,133.1 245.8,131.9 Q244.5,130.7 243.2,129.6 Q241.9,128.5 240.5,127.5 Q239.1,126.4 237.5,125.5 Q236,124.6 234.3,124 Q232.6,123.3 230,124 L227.5,124.8 Z"/><path d="M252.8,122.6 Q257.3,123.6 258.7,123 Q260.1,122.5 261.4,121.8 Q262.7,121.2 263.9,120.4 Q265.1,119.7 266.3,119 Q267.4,118.3 268.6,117.7 Q269.7,117 270.8,116.4 Q272,115.8 273.1,115.3 Q274.3,114.8 275.4,114.3 Q276.6,113.9 277.8,113.5 Q279,113.2 280.2,113 Q281.4,112.7 282.5,112.6 Q283.7,112.5 284.9,112.6 Q286.1,112.7 287.2,112.9 Q288.4,113.2 289.5,113.6 Q290.6,114.1 291.6,114.7 Q292.5,115.3 292.5,115.3 Q292.5,115.3 291.8,114.4 Q291,113.4 290.1,112.6 Q289.1,111.7 288,111.1 Q286.8,110.4 285.5,109.8 Q284.3,109.3 282.9,109 Q281.5,108.6 280.1,108.5 Q278.6,108.3 277.2,108.3 Q275.7,108.2 274.2,108.3 Q272.7,108.4 271.2,108.7 Q269.7,109 268.2,109.4 Q266.7,109.8 265.2,110.3 Q263.7,110.8 262.3,111.5 Q260.9,112.1 259.5,112.9 Q258.2,113.7 256.9,114.7 Q255.6,115.6 254.5,116.8 Q253.4,117.9 253.1,120.3 L252.8,122.6 Z"/><path d="M194,122 Q202.9,122.3 205.6,120.6 Q208.3,119 210.6,117.1 Q213,115.2 215.2,113.2 Q217.4,111.2 219.5,109.2 Q221.5,107.2 223.5,105.3 Q225.5,103.3 227.5,101.4 Q229.5,99.5 231.5,97.7 Q233.4,95.9 235.4,94.2 Q237.4,92.5 239.5,91 Q241.5,89.5 243.7,88.1 Q245.8,86.7 247.9,85.6 Q250.1,84.4 252.4,83.5 Q254.6,82.6 257,82 Q259.3,81.4 261.7,81.1 Q264.1,80.9 266.5,80.9 Q268.9,81 268.9,81 Q268.9,81 266.6,80.2 Q264.3,79.4 261.8,79 Q259.2,78.5 256.6,78.4 Q254,78.3 251.2,78.5 Q248.5,78.7 245.8,79.2 Q243,79.7 240.3,80.6 Q237.5,81.4 234.8,82.4 Q232.1,83.5 229.5,84.7 Q226.8,86 224.2,87.4 Q221.6,88.8 219.1,90.5 Q216.5,92.1 214,93.8 Q211.6,95.6 209.2,97.4 Q206.8,99.3 204.6,101.4 Q202.3,103.4 200.2,105.7 Q198,107.9 196.2,110.5 Q194.3,113.1 194.2,117.5 L194,122 Z"/><path d="M216.6,101.4 Q219.2,105 220.6,105.6 Q222,106.1 223.3,106.5 Q224.7,107 226,107.3 Q227.2,107.7 228.5,108.2 Q229.7,108.6 230.9,109 Q232.2,109.5 233.3,110 Q234.5,110.6 235.6,111.2 Q236.7,111.8 237.8,112.5 Q238.9,113.2 239.9,113.9 Q241,114.7 241.9,115.5 Q242.9,116.3 243.8,117.1 Q244.7,118 245.5,118.9 Q246.3,119.9 246.9,120.9 Q247.6,121.9 248.1,123 Q248.6,124.1 248.9,125.2 Q249.2,126.4 249.2,126.4 Q249.2,126.4 249.3,125.2 Q249.3,123.9 249.2,122.7 Q249,121.4 248.7,120.1 Q248.3,118.8 247.8,117.6 Q247.3,116.3 246.6,115.1 Q246,113.8 245.2,112.6 Q244.4,111.4 243.5,110.3 Q242.6,109.1 241.6,108 Q240.6,106.9 239.4,105.9 Q238.3,104.8 237,103.9 Q235.8,102.9 234.4,102.1 Q233,101.3 231.5,100.6 Q230,99.9 228.4,99.4 Q226.8,99 225.2,98.7 Q223.5,98.4 221.8,98.5 Q220.2,98.5 218.4,100 L216.6,101.4 Z"/><path d="M234.8,88 Q238.7,88.2 239.8,87.6 Q241,87.1 242,86.5 Q243,85.8 244.1,85.3 Q245.1,84.7 246.1,84.1 Q247.1,83.6 248.1,83.1 Q249.2,82.5 250.2,82.1 Q251.3,81.6 252.4,81.2 Q253.5,80.8 254.6,80.4 Q255.7,80.1 256.8,79.7 Q257.9,79.4 259,79.1 Q260.1,78.8 261.2,78.6 Q262.3,78.4 263.3,78.3 Q264.4,78.1 265.5,78.1 Q266.5,78.1 267.6,78.3 Q268.6,78.5 269.6,78.8 Q270.6,79.1 270.6,79.1 Q270.6,79.1 269.7,78.5 Q268.9,77.8 267.9,77.3 Q266.8,76.8 265.7,76.5 Q264.6,76.1 263.4,75.9 Q262.3,75.7 261.1,75.5 Q259.9,75.4 258.6,75.3 Q257.4,75.3 256.1,75.3 Q254.9,75.3 253.6,75.4 Q252.3,75.4 251,75.6 Q249.7,75.7 248.4,76 Q247,76.3 245.7,76.7 Q244.3,77.1 243,77.6 Q241.7,78.2 240.4,78.9 Q239.1,79.7 237.9,80.6 Q236.8,81.6 235.8,82.7 Q234.8,83.9 234.8,86 L234.8,88 Z"/><path d="M194,112 Q201,109.4 202.7,107.4 Q204.4,105.4 205.8,103.4 Q207.3,101.4 208.7,99.4 Q210.1,97.4 211.6,95.6 Q213,93.7 214.5,91.8 Q216,90 217.6,88.3 Q219.1,86.5 220.8,84.8 Q222.4,83.2 224.1,81.6 Q225.8,80 227.5,78.4 Q229.3,76.9 231,75.4 Q232.8,73.9 234.5,72.6 Q236.3,71.2 238.1,70 Q239.9,68.7 241.8,67.6 Q243.7,66.5 245.6,65.6 Q247.5,64.6 249.5,63.9 Q251.5,63.2 251.5,63.2 Q251.5,63.2 249.3,63.4 Q247.2,63.5 245,63.9 Q242.8,64.3 240.6,64.9 Q238.4,65.4 236.2,66.2 Q234,66.9 231.8,67.8 Q229.6,68.7 227.4,69.7 Q225.3,70.7 223.1,71.9 Q220.9,73 218.7,74.2 Q216.5,75.5 214.3,76.9 Q212.1,78.4 210,80 Q207.8,81.6 205.8,83.5 Q203.8,85.3 201.9,87.4 Q200,89.5 198.3,91.8 Q196.6,94.1 195.2,96.6 Q193.8,99.1 192.9,101.9 Q191.9,104.7 193,108.3 L194,112 Z"/><path d="M208.4,89.5 Q211.8,91.2 213,91.1 Q214.3,91.1 215.5,91 Q216.8,90.8 218,90.7 Q219.2,90.6 220.4,90.5 Q221.6,90.4 222.8,90.3 Q224,90.2 225.2,90.1 Q226.4,90 227.6,89.9 Q228.8,89.9 230,89.8 Q231.2,89.8 232.4,89.7 Q233.5,89.7 234.7,89.7 Q235.8,89.7 236.9,89.8 Q238,89.9 239,90.1 Q240.1,90.2 241.1,90.6 Q242.1,90.9 243,91.4 Q243.9,91.9 244.7,92.5 Q245.5,93.2 245.5,93.2 Q245.5,93.2 244.9,92.3 Q244.3,91.4 243.5,90.6 Q242.7,89.8 241.8,89.2 Q240.8,88.5 239.7,88 Q238.7,87.4 237.5,87 Q236.4,86.6 235.2,86.3 Q234,85.9 232.8,85.6 Q231.6,85.4 230.4,85.1 Q229.2,84.8 228,84.6 Q226.7,84.4 225.4,84.2 Q224.1,84.1 222.8,84 Q221.4,83.9 220.1,83.9 Q218.7,83.9 217.3,84 Q215.8,84.2 214.4,84.5 Q213,84.8 211.6,85.5 Q210.3,86.1 209.3,87.8 L208.4,89.5 Z"/><path d="M223.3,76.5 Q226.6,75.7 227.4,74.9 Q228.2,74.1 229,73.2 Q229.7,72.4 230.4,71.5 Q231.1,70.6 231.8,69.8 Q232.5,68.9 233.1,68 Q233.8,67.2 234.5,66.3 Q235.1,65.5 235.8,64.6 Q236.4,63.8 237.1,63 Q237.8,62.2 238.4,61.5 Q239.1,60.7 239.8,60 Q240.4,59.3 241.2,58.7 Q241.9,58.1 242.7,57.6 Q243.4,57.1 244.3,56.7 Q245.1,56.4 246,56.2 Q246.9,56 247.8,56 Q248.8,56.1 248.8,56.1 Q248.8,56.1 247.9,55.8 Q246.9,55.5 246,55.4 Q245,55.3 243.9,55.4 Q242.9,55.5 241.9,55.8 Q240.8,56.1 239.8,56.6 Q238.9,57 237.9,57.5 Q237,58.1 236,58.7 Q235.1,59.3 234.2,60 Q233.3,60.6 232.5,61.3 Q231.6,62 230.7,62.8 Q229.9,63.5 229,64.3 Q228.2,65.1 227.4,66 Q226.6,66.8 225.8,67.8 Q225,68.7 224.3,69.7 Q223.7,70.8 223.1,71.9 Q222.6,73.1 223,74.8 L223.3,76.5 Z"/><path d="M180,96 Q171.9,111.5 171.3,119.1 Q170.6,126.7 170.6,134.2 Q170.6,141.6 170.8,148.9 Q171.1,156.2 171.5,163.3 Q171.9,170.4 172.4,177.3 Q172.9,184.3 173.5,191 Q174.1,197.8 174.6,204.4 Q175.2,211 175.9,217.5 Q176.5,223.9 177.1,230.2 Q177.7,236.5 178.3,242.6 Q178.9,248.7 179.4,254.7 Q180,260.6 180,260.6 Q180,260.6 180.6,254.7 Q181.1,248.7 181.7,242.6 Q182.3,236.5 182.9,230.2 Q183.5,223.9 184.1,217.5 Q184.8,211 185.4,204.4 Q185.9,197.8 186.5,191 Q187.1,184.3 187.6,177.3 Q188.1,170.4 188.5,163.3 Q188.9,156.2 189.2,148.9 Q189.4,141.6 189.4,134.2 Q189.4,126.7 188.7,119.1 Q188.1,111.5 184.1,103.8 L180,96 Z"/></g><g fill="var(--acento)"><path d="M173,112 Q171,125.2 172,131.3 Q172.9,137.4 174.3,143.3 Q175.7,149.1 177.2,154.8 Q178.8,160.4 180.5,165.9 Q182.2,171.3 183.9,176.5 Q185.7,181.8 187.5,186.8 Q189.4,191.9 191.3,196.7 Q193.2,201.6 195.3,206.2 Q197.3,210.8 199.5,215.1 Q201.8,219.4 201.8,219.4 Q201.8,219.4 200.2,214.8 Q198.7,210.2 197.4,205.4 Q196,200.6 194.8,195.6 Q193.7,190.6 192.6,185.4 Q191.5,180.2 190.5,174.8 Q189.4,169.4 188.4,163.9 Q187.3,158.4 186.2,152.7 Q185.1,147 183.9,141.2 Q182.7,135.4 181.2,129.4 Q179.8,123.5 176.4,117.8 L173,112 Z"/><path d="M187,112 Q180.2,123.5 178.8,129.4 Q177.3,135.4 176.1,141.2 Q174.9,147 173.8,152.7 Q172.7,158.4 171.6,163.9 Q170.6,169.4 169.5,174.8 Q168.5,180.2 167.4,185.4 Q166.3,190.6 165.2,195.6 Q164,200.6 162.6,205.4 Q161.3,210.2 159.8,214.8 Q158.2,219.4 158.2,219.4 Q158.2,219.4 160.5,215.1 Q162.7,210.8 164.7,206.2 Q166.8,201.6 168.7,196.7 Q170.6,191.9 172.5,186.8 Q174.3,181.8 176.1,176.5 Q177.8,171.3 179.5,165.9 Q181.2,160.4 182.8,154.8 Q184.3,149.1 185.7,143.3 Q187.1,137.4 188,131.3 Q189,125.2 188,118.6 L187,112 Z"/></g><g fill="var(--hueso)"><path d="M166,132 Q161.4,122.6 158,121 Q154.5,119.3 151,118.3 Q147.5,117.3 144,116.8 Q140.5,116.2 137,116 Q133.6,115.7 130.2,115.6 Q126.9,115.6 123.6,115.6 Q120.3,115.7 117.1,115.8 Q113.9,116 110.8,116.2 Q107.6,116.3 104.5,116.6 Q101.5,116.8 98.4,117.1 Q95.3,117.5 92.3,117.9 Q89.2,118.4 86.3,119 Q83.3,119.7 80.5,120.7 Q77.7,121.6 75.1,122.9 Q72.5,124.2 70.3,125.8 Q68,127.4 68,127.4 Q68,127.4 70.6,126.6 Q73.2,125.8 75.8,125.4 Q78.5,125 81.2,125 Q84,124.9 86.7,125.2 Q89.5,125.4 92.3,125.9 Q95.1,126.3 98,126.9 Q100.9,127.5 103.8,128.2 Q106.8,128.8 109.8,129.4 Q112.8,130.1 115.9,130.7 Q119,131.4 122.1,132 Q125.2,132.6 128.4,133.2 Q131.5,133.8 134.6,134.4 Q137.8,134.9 140.9,135.4 Q144.1,136 147.3,136.4 Q150.5,136.8 153.8,136.8 Q157.2,136.9 161.6,134.5 L166,132 Z"/><path d="M132.5,124.8 Q127.4,123.3 125.7,124 Q124,124.6 122.5,125.5 Q120.9,126.4 119.5,127.5 Q118.1,128.5 116.8,129.6 Q115.5,130.7 114.2,131.9 Q113,133.1 111.8,134.3 Q110.7,135.6 109.6,136.9 Q108.5,138.2 107.6,139.5 Q106.6,140.9 105.8,142.3 Q104.9,143.7 104.2,145.2 Q103.5,146.7 102.9,148.2 Q102.4,149.7 102.1,151.3 Q101.9,152.8 101.9,154.4 Q101.9,155.9 102.1,157.3 Q102.4,158.8 103,160 Q103.6,161.3 103.6,161.3 Q103.6,161.3 103.4,160 Q103.3,158.6 103.5,157.3 Q103.7,156 104.1,154.7 Q104.5,153.5 105.2,152.3 Q105.8,151.2 106.6,150.1 Q107.4,149 108.4,148 Q109.4,147.1 110.4,146.1 Q111.5,145.2 112.6,144.3 Q113.8,143.4 115,142.5 Q116.2,141.6 117.5,140.8 Q118.7,139.9 120,139 Q121.3,138.2 122.6,137.3 Q124,136.4 125.3,135.4 Q126.6,134.5 127.9,133.4 Q129.2,132.4 130.4,131.1 Q131.6,129.9 132.1,127.3 L132.5,124.8 Z"/><path d="M107.2,122.6 Q106.6,117.9 105.5,116.8 Q104.4,115.6 103.1,114.7 Q101.8,113.7 100.5,112.9 Q99.1,112.1 97.7,111.5 Q96.3,110.8 94.8,110.3 Q93.3,109.8 91.8,109.4 Q90.3,109 88.8,108.7 Q87.3,108.4 85.8,108.3 Q84.3,108.2 82.8,108.3 Q81.4,108.3 79.9,108.5 Q78.5,108.6 77.1,109 Q75.7,109.3 74.5,109.8 Q73.2,110.4 72,111.1 Q70.9,111.7 69.9,112.6 Q69,113.4 68.2,114.4 Q67.5,115.3 67.5,115.3 Q67.5,115.3 68.4,114.7 Q69.4,114.1 70.5,113.6 Q71.6,113.2 72.8,112.9 Q73.9,112.7 75.1,112.6 Q76.3,112.5 77.5,112.6 Q78.6,112.7 79.8,113 Q81,113.2 82.2,113.5 Q83.4,113.9 84.6,114.3 Q85.7,114.8 86.9,115.3 Q88,115.8 89.2,116.4 Q90.3,117 91.4,117.7 Q92.6,118.3 93.7,119 Q94.9,119.7 96.1,120.4 Q97.3,121.2 98.6,121.8 Q99.9,122.5 101.3,123 Q102.7,123.6 105,123.1 L107.2,122.6 Z"/><path d="M166,122 Q165.7,113.1 163.8,110.5 Q162,107.9 159.8,105.7 Q157.7,103.4 155.4,101.4 Q153.2,99.3 150.8,97.4 Q148.4,95.6 146,93.8 Q143.5,92.1 140.9,90.5 Q138.4,88.8 135.8,87.4 Q133.2,86 130.5,84.7 Q127.9,83.5 125.2,82.4 Q122.5,81.4 119.7,80.6 Q117,79.7 114.2,79.2 Q111.5,78.7 108.8,78.5 Q106,78.3 103.4,78.4 Q100.8,78.5 98.2,79 Q95.7,79.4 93.4,80.2 Q91.1,81 91.1,81 Q91.1,81 93.5,80.9 Q95.9,80.9 98.3,81.1 Q100.7,81.4 103,82 Q105.4,82.6 107.6,83.5 Q109.9,84.4 112.1,85.6 Q114.2,86.7 116.3,88.1 Q118.5,89.5 120.5,91 Q122.6,92.5 124.6,94.2 Q126.6,95.9 128.5,97.7 Q130.5,99.5 132.5,101.4 Q134.5,103.3 136.5,105.3 Q138.5,107.2 140.5,109.2 Q142.6,111.2 144.8,113.2 Q147,115.2 149.4,117.1 Q151.7,119 154.4,120.6 Q157.1,122.3 161.6,122.1 L166,122 Z"/><path d="M143.4,101.4 Q139.8,98.5 138.2,98.5 Q136.5,98.4 134.8,98.7 Q133.2,99 131.6,99.4 Q130,99.9 128.5,100.6 Q127,101.3 125.6,102.1 Q124.2,102.9 123,103.9 Q121.7,104.8 120.6,105.9 Q119.4,106.9 118.4,108 Q117.4,109.1 116.5,110.3 Q115.6,111.4 114.8,112.6 Q114,113.8 113.4,115.1 Q112.7,116.3 112.2,117.6 Q111.7,118.8 111.3,120.1 Q111,121.4 110.8,122.7 Q110.7,123.9 110.7,125.2 Q110.8,126.4 110.8,126.4 Q110.8,126.4 111.1,125.2 Q111.4,124.1 111.9,123 Q112.4,121.9 113.1,120.9 Q113.7,119.9 114.5,118.9 Q115.3,118 116.2,117.1 Q117.1,116.3 118.1,115.5 Q119,114.7 120.1,113.9 Q121.1,113.2 122.2,112.5 Q123.3,111.8 124.4,111.2 Q125.5,110.6 126.7,110 Q127.8,109.5 129.1,109 Q130.3,108.6 131.5,108.2 Q132.8,107.7 134,107.3 Q135.3,107 136.7,106.5 Q138,106.1 139.4,105.6 Q140.8,105 142.1,103.2 L143.4,101.4 Z"/><path d="M125.2,88 Q125.2,83.9 124.2,82.7 Q123.2,81.6 122.1,80.6 Q120.9,79.7 119.6,78.9 Q118.3,78.2 117,77.6 Q115.7,77.1 114.3,76.7 Q113,76.3 111.6,76 Q110.3,75.7 109,75.6 Q107.7,75.4 106.4,75.4 Q105.1,75.3 103.9,75.3 Q102.6,75.3 101.4,75.3 Q100.1,75.4 98.9,75.5 Q97.7,75.7 96.6,75.9 Q95.4,76.1 94.3,76.5 Q93.2,76.8 92.1,77.3 Q91.1,77.8 90.3,78.5 Q89.4,79.1 89.4,79.1 Q89.4,79.1 90.4,78.8 Q91.4,78.5 92.4,78.3 Q93.5,78.1 94.5,78.1 Q95.6,78.1 96.7,78.3 Q97.7,78.4 98.8,78.6 Q99.9,78.8 101,79.1 Q102.1,79.4 103.2,79.7 Q104.3,80.1 105.4,80.4 Q106.5,80.8 107.6,81.2 Q108.7,81.6 109.8,82.1 Q110.8,82.5 111.9,83.1 Q112.9,83.6 113.9,84.1 Q114.9,84.7 115.9,85.3 Q117,85.8 118,86.5 Q119,87.1 120.2,87.6 Q121.3,88.2 123.3,88.1 L125.2,88 Z"/><path d="M166,112 Q168.1,104.7 167.1,101.9 Q166.2,99.1 164.8,96.6 Q163.4,94.1 161.7,91.8 Q160,89.5 158.1,87.4 Q156.2,85.3 154.2,83.5 Q152.2,81.6 150,80 Q147.9,78.4 145.7,76.9 Q143.5,75.5 141.3,74.2 Q139.1,73 136.9,71.9 Q134.7,70.7 132.6,69.7 Q130.4,68.7 128.2,67.8 Q126,66.9 123.8,66.2 Q121.6,65.4 119.4,64.9 Q117.2,64.3 115,63.9 Q112.8,63.5 110.7,63.4 Q108.5,63.2 108.5,63.2 Q108.5,63.2 110.5,63.9 Q112.5,64.6 114.4,65.6 Q116.3,66.5 118.2,67.6 Q120.1,68.7 121.9,70 Q123.7,71.2 125.5,72.6 Q127.2,73.9 129,75.4 Q130.7,76.9 132.5,78.4 Q134.2,80 135.9,81.6 Q137.6,83.2 139.2,84.8 Q140.9,86.5 142.4,88.3 Q144,90 145.5,91.8 Q147,93.7 148.4,95.6 Q149.9,97.4 151.3,99.4 Q152.7,101.4 154.2,103.4 Q155.6,105.4 157.3,107.4 Q159,109.4 162.5,110.7 L166,112 Z"/><path d="M151.6,89.5 Q149.7,86.1 148.4,85.5 Q147,84.8 145.6,84.5 Q144.2,84.2 142.7,84 Q141.3,83.9 139.9,83.9 Q138.6,83.9 137.2,84 Q135.9,84.1 134.6,84.2 Q133.3,84.4 132,84.6 Q130.8,84.8 129.6,85.1 Q128.4,85.4 127.2,85.6 Q126,85.9 124.8,86.3 Q123.6,86.6 122.5,87 Q121.3,87.4 120.3,88 Q119.2,88.5 118.2,89.2 Q117.3,89.8 116.5,90.6 Q115.7,91.4 115.1,92.3 Q114.5,93.2 114.5,93.2 Q114.5,93.2 115.3,92.5 Q116.1,91.9 117,91.4 Q117.9,90.9 118.9,90.6 Q119.9,90.2 121,90.1 Q122,89.9 123.1,89.8 Q124.2,89.7 125.3,89.7 Q126.5,89.7 127.6,89.7 Q128.8,89.8 130,89.8 Q131.2,89.9 132.4,89.9 Q133.6,90 134.8,90.1 Q136,90.2 137.2,90.3 Q138.4,90.4 139.6,90.5 Q140.8,90.6 142,90.7 Q143.2,90.8 144.5,91 Q145.7,91.1 147,91.1 Q148.2,91.2 149.9,90.3 L151.6,89.5 Z"/><path d="M136.7,76.5 Q137.4,73.1 136.9,71.9 Q136.3,70.8 135.7,69.7 Q135,68.7 134.2,67.8 Q133.4,66.8 132.6,66 Q131.8,65.1 131,64.3 Q130.1,63.5 129.3,62.8 Q128.4,62 127.5,61.3 Q126.7,60.6 125.8,60 Q124.9,59.3 124,58.7 Q123,58.1 122.1,57.5 Q121.1,57 120.2,56.6 Q119.2,56.1 118.1,55.8 Q117.1,55.5 116.1,55.4 Q115,55.3 114,55.4 Q113.1,55.5 112.1,55.8 Q111.2,56.1 111.2,56.1 Q111.2,56.1 112.2,56 Q113.1,56 114,56.2 Q114.9,56.4 115.7,56.7 Q116.6,57.1 117.3,57.6 Q118.1,58.1 118.8,58.7 Q119.6,59.3 120.2,60 Q120.9,60.7 121.6,61.5 Q122.2,62.2 122.9,63 Q123.6,63.8 124.2,64.6 Q124.9,65.5 125.5,66.3 Q126.2,67.2 126.9,68 Q127.5,68.9 128.2,69.8 Q128.9,70.6 129.6,71.5 Q130.3,72.4 131,73.2 Q131.8,74.1 132.6,74.9 Q133.4,75.7 135,76.1 L136.7,76.5 Z"/><path d="M194,132 Q202.8,136.9 206.2,136.8 Q209.5,136.8 212.7,136.4 Q215.9,136 219.1,135.4 Q222.2,134.9 225.4,134.4 Q228.5,133.8 231.6,133.2 Q234.8,132.6 237.9,132 Q241,131.4 244.1,130.7 Q247.2,130.1 250.2,129.4 Q253.2,128.8 256.2,128.2 Q259.1,127.5 262,126.9 Q264.9,126.3 267.7,125.9 Q270.5,125.4 273.3,125.2 Q276,124.9 278.8,125 Q281.5,125 284.2,125.4 Q286.8,125.8 289.4,126.6 Q292,127.4 292,127.4 Q292,127.4 289.7,125.8 Q287.5,124.2 284.9,122.9 Q282.3,121.6 279.5,120.7 Q276.7,119.7 273.7,119 Q270.8,118.4 267.7,117.9 Q264.7,117.5 261.6,117.1 Q258.5,116.8 255.5,116.6 Q252.4,116.3 249.2,116.2 Q246.1,116 242.9,115.8 Q239.7,115.7 236.4,115.6 Q233.1,115.6 229.8,115.6 Q226.4,115.7 223,116 Q219.5,116.2 216,116.8 Q212.5,117.3 209,118.3 Q205.5,119.3 202,121 Q198.6,122.6 196.3,127.3 L194,132 Z"/><path d="M227.5,124.8 Q228.4,129.9 229.6,131.1 Q230.8,132.4 232.1,133.4 Q233.4,134.5 234.7,135.4 Q236,136.4 237.4,137.3 Q238.7,138.2 240,139 Q241.3,139.9 242.5,140.8 Q243.8,141.6 245,142.5 Q246.2,143.4 247.4,144.3 Q248.5,145.2 249.6,146.1 Q250.6,147.1 251.6,148 Q252.6,149 253.4,150.1 Q254.2,151.2 254.8,152.3 Q255.5,153.5 255.9,154.7 Q256.3,156 256.5,157.3 Q256.7,158.6 256.6,160 Q256.4,161.3 256.4,161.3 Q256.4,161.3 257,160 Q257.6,158.8 257.9,157.3 Q258.1,155.9 258.1,154.4 Q258.1,152.8 257.9,151.3 Q257.6,149.7 257.1,148.2 Q256.5,146.7 255.8,145.2 Q255.1,143.7 254.2,142.3 Q253.4,140.9 252.4,139.5 Q251.5,138.2 250.4,136.9 Q249.3,135.6 248.2,134.3 Q247,133.1 245.8,131.9 Q244.5,130.7 243.2,129.6 Q241.9,128.5 240.5,127.5 Q239.1,126.4 237.5,125.5 Q236,124.6 234.3,124 Q232.6,123.3 230,124 L227.5,124.8 Z"/><path d="M252.8,122.6 Q257.3,123.6 258.7,123 Q260.1,122.5 261.4,121.8 Q262.7,121.2 263.9,120.4 Q265.1,119.7 266.3,119 Q267.4,118.3 268.6,117.7 Q269.7,117 270.8,116.4 Q272,115.8 273.1,115.3 Q274.3,114.8 275.4,114.3 Q276.6,113.9 277.8,113.5 Q279,113.2 280.2,113 Q281.4,112.7 282.5,112.6 Q283.7,112.5 284.9,112.6 Q286.1,112.7 287.2,112.9 Q288.4,113.2 289.5,113.6 Q290.6,114.1 291.6,114.7 Q292.5,115.3 292.5,115.3 Q292.5,115.3 291.8,114.4 Q291,113.4 290.1,112.6 Q289.1,111.7 288,111.1 Q286.8,110.4 285.5,109.8 Q284.3,109.3 282.9,109 Q281.5,108.6 280.1,108.5 Q278.6,108.3 277.2,108.3 Q275.7,108.2 274.2,108.3 Q272.7,108.4 271.2,108.7 Q269.7,109 268.2,109.4 Q266.7,109.8 265.2,110.3 Q263.7,110.8 262.3,111.5 Q260.9,112.1 259.5,112.9 Q258.2,113.7 256.9,114.7 Q255.6,115.6 254.5,116.8 Q253.4,117.9 253.1,120.3 L252.8,122.6 Z"/><path d="M194,122 Q202.9,122.3 205.6,120.6 Q208.3,119 210.6,117.1 Q213,115.2 215.2,113.2 Q217.4,111.2 219.5,109.2 Q221.5,107.2 223.5,105.3 Q225.5,103.3 227.5,101.4 Q229.5,99.5 231.5,97.7 Q233.4,95.9 235.4,94.2 Q237.4,92.5 239.5,91 Q241.5,89.5 243.7,88.1 Q245.8,86.7 247.9,85.6 Q250.1,84.4 252.4,83.5 Q254.6,82.6 257,82 Q259.3,81.4 261.7,81.1 Q264.1,80.9 266.5,80.9 Q268.9,81 268.9,81 Q268.9,81 266.6,80.2 Q264.3,79.4 261.8,79 Q259.2,78.5 256.6,78.4 Q254,78.3 251.2,78.5 Q248.5,78.7 245.8,79.2 Q243,79.7 240.3,80.6 Q237.5,81.4 234.8,82.4 Q232.1,83.5 229.5,84.7 Q226.8,86 224.2,87.4 Q221.6,88.8 219.1,90.5 Q216.5,92.1 214,93.8 Q211.6,95.6 209.2,97.4 Q206.8,99.3 204.6,101.4 Q202.3,103.4 200.2,105.7 Q198,107.9 196.2,110.5 Q194.3,113.1 194.2,117.5 L194,122 Z"/><path d="M216.6,101.4 Q219.2,105 220.6,105.6 Q222,106.1 223.3,106.5 Q224.7,107 226,107.3 Q227.2,107.7 228.5,108.2 Q229.7,108.6 230.9,109 Q232.2,109.5 233.3,110 Q234.5,110.6 235.6,111.2 Q236.7,111.8 237.8,112.5 Q238.9,113.2 239.9,113.9 Q241,114.7 241.9,115.5 Q242.9,116.3 243.8,117.1 Q244.7,118 245.5,118.9 Q246.3,119.9 246.9,120.9 Q247.6,121.9 248.1,123 Q248.6,124.1 248.9,125.2 Q249.2,126.4 249.2,126.4 Q249.2,126.4 249.3,125.2 Q249.3,123.9 249.2,122.7 Q249,121.4 248.7,120.1 Q248.3,118.8 247.8,117.6 Q247.3,116.3 246.6,115.1 Q246,113.8 245.2,112.6 Q244.4,111.4 243.5,110.3 Q242.6,109.1 241.6,108 Q240.6,106.9 239.4,105.9 Q238.3,104.8 237,103.9 Q235.8,102.9 234.4,102.1 Q233,101.3 231.5,100.6 Q230,99.9 228.4,99.4 Q226.8,99 225.2,98.7 Q223.5,98.4 221.8,98.5 Q220.2,98.5 218.4,100 L216.6,101.4 Z"/><path d="M234.8,88 Q238.7,88.2 239.8,87.6 Q241,87.1 242,86.5 Q243,85.8 244.1,85.3 Q245.1,84.7 246.1,84.1 Q247.1,83.6 248.1,83.1 Q249.2,82.5 250.2,82.1 Q251.3,81.6 252.4,81.2 Q253.5,80.8 254.6,80.4 Q255.7,80.1 256.8,79.7 Q257.9,79.4 259,79.1 Q260.1,78.8 261.2,78.6 Q262.3,78.4 263.3,78.3 Q264.4,78.1 265.5,78.1 Q266.5,78.1 267.6,78.3 Q268.6,78.5 269.6,78.8 Q270.6,79.1 270.6,79.1 Q270.6,79.1 269.7,78.5 Q268.9,77.8 267.9,77.3 Q266.8,76.8 265.7,76.5 Q264.6,76.1 263.4,75.9 Q262.3,75.7 261.1,75.5 Q259.9,75.4 258.6,75.3 Q257.4,75.3 256.1,75.3 Q254.9,75.3 253.6,75.4 Q252.3,75.4 251,75.6 Q249.7,75.7 248.4,76 Q247,76.3 245.7,76.7 Q244.3,77.1 243,77.6 Q241.7,78.2 240.4,78.9 Q239.1,79.7 237.9,80.6 Q236.8,81.6 235.8,82.7 Q234.8,83.9 234.8,86 L234.8,88 Z"/><path d="M194,112 Q201,109.4 202.7,107.4 Q204.4,105.4 205.8,103.4 Q207.3,101.4 208.7,99.4 Q210.1,97.4 211.6,95.6 Q213,93.7 214.5,91.8 Q216,90 217.6,88.3 Q219.1,86.5 220.8,84.8 Q222.4,83.2 224.1,81.6 Q225.8,80 227.5,78.4 Q229.3,76.9 231,75.4 Q232.8,73.9 234.5,72.6 Q236.3,71.2 238.1,70 Q239.9,68.7 241.8,67.6 Q243.7,66.5 245.6,65.6 Q247.5,64.6 249.5,63.9 Q251.5,63.2 251.5,63.2 Q251.5,63.2 249.3,63.4 Q247.2,63.5 245,63.9 Q242.8,64.3 240.6,64.9 Q238.4,65.4 236.2,66.2 Q234,66.9 231.8,67.8 Q229.6,68.7 227.4,69.7 Q225.3,70.7 223.1,71.9 Q220.9,73 218.7,74.2 Q216.5,75.5 214.3,76.9 Q212.1,78.4 210,80 Q207.8,81.6 205.8,83.5 Q203.8,85.3 201.9,87.4 Q200,89.5 198.3,91.8 Q196.6,94.1 195.2,96.6 Q193.8,99.1 192.9,101.9 Q191.9,104.7 193,108.3 L194,112 Z"/><path d="M208.4,89.5 Q211.8,91.2 213,91.1 Q214.3,91.1 215.5,91 Q216.8,90.8 218,90.7 Q219.2,90.6 220.4,90.5 Q221.6,90.4 222.8,90.3 Q224,90.2 225.2,90.1 Q226.4,90 227.6,89.9 Q228.8,89.9 230,89.8 Q231.2,89.8 232.4,89.7 Q233.5,89.7 234.7,89.7 Q235.8,89.7 236.9,89.8 Q238,89.9 239,90.1 Q240.1,90.2 241.1,90.6 Q242.1,90.9 243,91.4 Q243.9,91.9 244.7,92.5 Q245.5,93.2 245.5,93.2 Q245.5,93.2 244.9,92.3 Q244.3,91.4 243.5,90.6 Q242.7,89.8 241.8,89.2 Q240.8,88.5 239.7,88 Q238.7,87.4 237.5,87 Q236.4,86.6 235.2,86.3 Q234,85.9 232.8,85.6 Q231.6,85.4 230.4,85.1 Q229.2,84.8 228,84.6 Q226.7,84.4 225.4,84.2 Q224.1,84.1 222.8,84 Q221.4,83.9 220.1,83.9 Q218.7,83.9 217.3,84 Q215.8,84.2 214.4,84.5 Q213,84.8 211.6,85.5 Q210.3,86.1 209.3,87.8 L208.4,89.5 Z"/><path d="M223.3,76.5 Q226.6,75.7 227.4,74.9 Q228.2,74.1 229,73.2 Q229.7,72.4 230.4,71.5 Q231.1,70.6 231.8,69.8 Q232.5,68.9 233.1,68 Q233.8,67.2 234.5,66.3 Q235.1,65.5 235.8,64.6 Q236.4,63.8 237.1,63 Q237.8,62.2 238.4,61.5 Q239.1,60.7 239.8,60 Q240.4,59.3 241.2,58.7 Q241.9,58.1 242.7,57.6 Q243.4,57.1 244.3,56.7 Q245.1,56.4 246,56.2 Q246.9,56 247.8,56 Q248.8,56.1 248.8,56.1 Q248.8,56.1 247.9,55.8 Q246.9,55.5 246,55.4 Q245,55.3 243.9,55.4 Q242.9,55.5 241.9,55.8 Q240.8,56.1 239.8,56.6 Q238.9,57 237.9,57.5 Q237,58.1 236,58.7 Q235.1,59.3 234.2,60 Q233.3,60.6 232.5,61.3 Q231.6,62 230.7,62.8 Q229.9,63.5 229,64.3 Q228.2,65.1 227.4,66 Q226.6,66.8 225.8,67.8 Q225,68.7 224.3,69.7 Q223.7,70.8 223.1,71.9 Q222.6,73.1 223,74.8 L223.3,76.5 Z"/><path d="M180,96 Q171.9,111.5 171.3,119.1 Q170.6,126.7 170.6,134.2 Q170.6,141.6 170.8,148.9 Q171.1,156.2 171.5,163.3 Q171.9,170.4 172.4,177.3 Q172.9,184.3 173.5,191 Q174.1,197.8 174.6,204.4 Q175.2,211 175.9,217.5 Q176.5,223.9 177.1,230.2 Q177.7,236.5 178.3,242.6 Q178.9,248.7 179.4,254.7 Q180,260.6 180,260.6 Q180,260.6 180.6,254.7 Q181.1,248.7 181.7,242.6 Q182.3,236.5 182.9,230.2 Q183.5,223.9 184.1,217.5 Q184.8,211 185.4,204.4 Q185.9,197.8 186.5,191 Q187.1,184.3 187.6,177.3 Q188.1,170.4 188.5,163.3 Q188.9,156.2 189.2,148.9 Q189.4,141.6 189.4,134.2 Q189.4,126.7 188.7,119.1 Q188.1,111.5 184.1,103.8 L180,96 Z"/></g><g fill="var(--acento)"><path d="M136,104 Q129.7,100.4 126.9,98.4 Q124,96.4 121.4,94.1 Q118.8,91.9 116.5,89.5 Q114.2,87.1 112.1,84.6 Q110.1,82.1 108.4,79.4 Q106.7,76.8 105.4,74 Q104,71.3 103.3,68.4 Q102.5,65.6 102.6,62.7 Q102.6,59.8 103.6,57.2 Q104.5,54.6 91,78 Q77.5,101.4 79.3,99.3 Q81.1,97.2 83.5,95.7 Q86,94.2 88.8,93.4 Q91.7,92.7 94.7,92.4 Q97.8,92.2 100.9,92.4 Q104.1,92.6 107.3,93 Q110.5,93.5 113.7,94.3 Q116.9,95.1 120.2,96.3 Q123.4,97.4 126.6,98.9 Q129.8,100.4 132.9,102.2 L136,104 Z M127.7,99.2 Q123.2,96.6 121.1,95.2 Q119,93.7 117.1,92.1 Q115.3,90.5 113.6,88.8 Q111.9,87 110.5,85.2 Q109,83.4 107.8,81.5 Q106.6,79.6 105.6,77.6 Q104.6,75.6 104.1,73.6 Q103.6,71.5 103.6,69.5 Q103.6,67.4 104.3,65.5 Q105,63.6 95.3,80.5 Q85.6,97.3 86.8,95.8 Q88.1,94.3 89.9,93.2 Q91.7,92.2 93.7,91.6 Q95.8,91 98,90.9 Q100.2,90.7 102.4,90.8 Q104.7,91 107,91.3 Q109.3,91.6 111.6,92.2 Q113.9,92.8 116.3,93.6 Q118.6,94.4 120.9,95.5 Q123.2,96.6 125.4,97.9 L127.7,99.2 Z" fill-rule="evenodd"/><path d="M224,104 Q230.2,100.4 233.4,98.9 Q236.6,97.4 239.8,96.3 Q243.1,95.1 246.3,94.3 Q249.5,93.5 252.7,93 Q255.9,92.6 259.1,92.4 Q262.2,92.2 265.3,92.4 Q268.3,92.7 271.2,93.4 Q274,94.2 276.5,95.7 Q278.9,97.2 280.7,99.3 Q282.5,101.4 269,78 Q255.5,54.6 256.4,57.2 Q257.4,59.8 257.4,62.7 Q257.5,65.6 256.7,68.4 Q256,71.3 254.6,74 Q253.3,76.8 251.6,79.4 Q249.9,82.1 247.9,84.6 Q245.8,87.1 243.5,89.5 Q241.2,91.9 238.6,94.1 Q236,96.4 233.1,98.4 Q230.3,100.4 227.1,102.2 L224,104 Z M232.3,99.2 Q236.8,96.6 239.1,95.5 Q241.4,94.4 243.7,93.6 Q246.1,92.8 248.4,92.2 Q250.7,91.6 253,91.3 Q255.3,91 257.6,90.8 Q259.8,90.7 262,90.9 Q264.2,91 266.3,91.6 Q268.3,92.2 270.1,93.2 Q271.9,94.3 273.2,95.8 Q274.4,97.3 264.7,80.5 Q255,63.6 255.7,65.5 Q256.4,67.4 256.4,69.5 Q256.4,71.5 255.9,73.6 Q255.4,75.6 254.4,77.6 Q253.4,79.6 252.2,81.5 Q251,83.4 249.5,85.2 Q248.1,87 246.4,88.8 Q244.7,90.5 242.9,92.1 Q241,93.7 238.9,95.2 Q236.8,96.6 234.6,97.9 L232.3,99.2 Z" fill-rule="evenodd"/></g><g color="var(--hueso)" fill="var(--hueso)"><path d="M103.8,74 A88,88 0 0 1 256.2,74" fill="none" stroke="currentColor" stroke-width="1.8"/><line x1="103.8" y1="74" x2="94.3" y2="68.5" stroke="currentColor" stroke-width="2"/><line x1="109.4" y1="65.5" x2="104.6" y2="61.9" stroke="currentColor" stroke-width="1.1"/><line x1="116" y1="57.6" x2="111.6" y2="53.5" stroke="currentColor" stroke-width="1.1"/><line x1="123.4" y1="50.6" x2="116.4" y2="42.2" stroke="currentColor" stroke-width="2"/><line x1="131.6" y1="44.5" x2="128.3" y2="39.5" stroke="currentColor" stroke-width="1.1"/><line x1="140.5" y1="39.4" x2="137.8" y2="34" stroke="currentColor" stroke-width="1.1"/><line x1="149.9" y1="35.3" x2="146.1" y2="25" stroke="currentColor" stroke-width="2"/><line x1="159.7" y1="32.4" x2="158.3" y2="26.5" stroke="currentColor" stroke-width="1.1"/><line x1="169.8" y1="30.6" x2="169.1" y2="24.6" stroke="currentColor" stroke-width="1.1"/><line x1="180" y1="30" x2="180" y2="19" stroke="currentColor" stroke-width="2"/><line x1="190.2" y1="30.6" x2="190.9" y2="24.6" stroke="currentColor" stroke-width="1.1"/><line x1="200.3" y1="32.4" x2="201.7" y2="26.5" stroke="currentColor" stroke-width="1.1"/><line x1="210.1" y1="35.3" x2="213.9" y2="25" stroke="currentColor" stroke-width="2"/><line x1="219.5" y1="39.4" x2="222.2" y2="34" stroke="currentColor" stroke-width="1.1"/><line x1="228.4" y1="44.5" x2="231.7" y2="39.5" stroke="currentColor" stroke-width="1.1"/><line x1="236.6" y1="50.6" x2="243.6" y2="42.2" stroke="currentColor" stroke-width="2"/><line x1="244" y1="57.6" x2="248.4" y2="53.5" stroke="currentColor" stroke-width="1.1"/><line x1="250.6" y1="65.5" x2="255.4" y2="61.9" stroke="currentColor" stroke-width="1.1"/><line x1="256.2" y1="74" x2="265.7" y2="68.5" stroke="currentColor" stroke-width="2"/></g>
</svg>
