<svg xmlns="http://www.w3.org/2000/svg" viewBox="0 0 1000 1320" width="1000" height="1320">
<g fill="#00f0ff" color="#00f0ff"><g color="currentColor"><path d="M344.23,135.07 A168,168 0 0 1 655.77,135.07" fill="none" stroke="currentColor" stroke-width="3"/><line x1="344.23" y1="135.07" x2="335.89" y2="131.69" stroke="currentColor" stroke-width="2"/><line x1="348.72" y1="124.94" x2="344.22" y2="122.77" stroke="currentColor" stroke-width="1.1"/><line x1="353.86" y1="115.13" x2="349.51" y2="112.66" stroke="currentColor" stroke-width="1.1"/><line x1="359.64" y1="105.68" x2="352.12" y2="100.74" stroke="currentColor" stroke-width="2"/><line x1="366.03" y1="96.64" x2="362.04" y2="93.62" stroke="currentColor" stroke-width="1.1"/><line x1="373" y1="88.03" x2="369.22" y2="84.76" stroke="currentColor" stroke-width="1.1"/><line x1="380.52" y1="79.9" x2="374.12" y2="73.57" stroke="currentColor" stroke-width="2"/><line x1="388.56" y1="72.28" x2="385.24" y2="68.54" stroke="currentColor" stroke-width="1.1"/><line x1="397.08" y1="65.21" x2="394.02" y2="61.26" stroke="currentColor" stroke-width="1.1"/><line x1="406.06" y1="58.72" x2="401.02" y2="51.26" stroke="currentColor" stroke-width="2"/><line x1="415.44" y1="52.83" x2="412.92" y2="48.51" stroke="currentColor" stroke-width="1.1"/><line x1="425.18" y1="47.58" x2="422.96" y2="43.1" stroke="currentColor" stroke-width="1.1"/><line x1="435.26" y1="42.98" x2="431.79" y2="34.67" stroke="currentColor" stroke-width="2"/><line x1="445.61" y1="39.05" x2="443.99" y2="34.32" stroke="currentColor" stroke-width="1.1"/><line x1="456.2" y1="35.81" x2="454.9" y2="30.98" stroke="currentColor" stroke-width="1.1"/><line x1="466.99" y1="33.28" x2="465.22" y2="24.45" stroke="currentColor" stroke-width="2"/><line x1="477.91" y1="31.46" x2="477.25" y2="26.5" stroke="currentColor" stroke-width="1.1"/><line x1="488.93" y1="30.37" x2="488.6" y2="25.38" stroke="currentColor" stroke-width="1.1"/><line x1="500" y1="30" x2="500" y2="21" stroke="currentColor" stroke-width="2"/><line x1="511.07" y1="30.37" x2="511.4" y2="25.38" stroke="currentColor" stroke-width="1.1"/><line x1="522.09" y1="31.46" x2="522.75" y2="26.5" stroke="currentColor" stroke-width="1.1"/><line x1="533.01" y1="33.28" x2="534.78" y2="24.45" stroke="currentColor" stroke-width="2"/><line x1="543.8" y1="35.81" x2="545.1" y2="30.98" stroke="currentColor" stroke-width="1.1"/><line x1="554.39" y1="39.05" x2="556.01" y2="34.32" stroke="currentColor" stroke-width="1.1"/><line x1="564.74" y1="42.98" x2="568.21" y2="34.67" stroke="currentColor" stroke-width="2"/><line x1="574.82" y1="47.58" x2="577.04" y2="43.1" stroke="currentColor" stroke-width="1.1"/><line x1="584.56" y1="52.83" x2="587.08" y2="48.51" stroke="currentColor" stroke-width="1.1"/><line x1="593.94" y1="58.72" x2="598.98" y2="51.26" stroke="currentColor" stroke-width="2"/><line x1="602.92" y1="65.21" x2="605.98" y2="61.26" stroke="currentColor" stroke-width="1.1"/><line x1="611.44" y1="72.28" x2="614.76" y2="68.54" stroke="currentColor" stroke-width="1.1"/><line x1="619.48" y1="79.9" x2="625.88" y2="73.57" stroke="currentColor" stroke-width="2"/><line x1="627" y1="88.03" x2="630.78" y2="84.76" stroke="currentColor" stroke-width="1.1"/><line x1="633.97" y1="96.64" x2="637.96" y2="93.62" stroke="currentColor" stroke-width="1.1"/><line x1="640.36" y1="105.68" x2="647.88" y2="100.74" stroke="currentColor" stroke-width="2"/><line x1="646.14" y1="115.13" x2="650.49" y2="112.66" stroke="currentColor" stroke-width="1.1"/><line x1="651.28" y1="124.94" x2="655.78" y2="122.77" stroke="currentColor" stroke-width="1.1"/><line x1="655.77" y1="135.07" x2="664.11" y2="131.69" stroke="currentColor" stroke-width="2"/><defs><clipPath id="q12-0"><rect x="-26.79" y="0" width="978.57" height="55.91"/></clipPath><clipPath id="q12-1"><rect x="-26.79" y="55.51" width="978.57" height="55.91"/></clipPath><clipPath id="q12-2"><rect x="-26.79" y="111.02" width="978.57" height="55.91"/></clipPath><clipPath id="q12-3"><rect x="-26.79" y="166.53" width="978.57" height="55.91"/></clipPath><clipPath id="q12-4"><rect x="-26.79" y="222.04" width="978.57" height="55.91"/></clipPath><clipPath id="q12-5"><rect x="-26.79" y="277.55" width="978.57" height="55.91"/></clipPath><clipPath id="q12-6"><rect x="-26.79" y="333.06" width="978.57" height="55.91"/></clipPath></defs><g clip-path="url(#q12-0)" transform="translate(-5.28,0)"><g transform="translate(75,210) scale(1.79)"><g transform="translate(0,0)"><path d="M-6.74,13.11 L25.76,98.11 L47.24,89.89 L14.74,4.89 Z"/><path d="M61.17,-2.71 L28.67,91.29 L44.33,96.71 L76.83,2.71 Z"/><path d="M7.82,-1.8 L22.08,5.58 L7.82,12.96 L-6.44,5.58 Z"/><path d="M69,0 L74.6,6.3 L69,12.6 L63.4,6.3 Z"/><path d="M36.5,87.9 L44.2,96 L36.5,104.1 L28.8,96 Z"/><path d="M6.9,14.18 L17.15,6.18 L15.3,3.81 L5.06,11.82 Z"/></g><g transform="translate(86.5,0)"><path d="M0,9 L23,0 L23,91 L0,100 Z"/><path d="M7.82,-1.8 L22.08,5.58 L7.82,12.96 L-6.44,5.58 Z"/><path d="M11.5,87.22 L29.44,95.5 L11.5,103.78 L-6.44,95.5 Z"/><path d="M23.92,13.18 L34.17,5.18 L32.32,2.81 L22.08,10.82 Z"/></g><g transform="translate(123,0)"><path d="M0,9 L23,0 L23,91 L0,100 Z"/><path d="M7.82,-1.8 L22.08,5.58 L7.82,12.96 L-6.44,5.58 Z"/><path d="M4.6,82.14 L58,85.74 L58,91.72 L4.6,88.12 Z"/><path d="M58,85.9 L64.3,93.1 L58,100.3 L51.7,93.1 Z"/><path d="M23.92,13.18 L34.17,5.18 L32.32,2.81 L22.08,10.82 Z"/></g><g transform="translate(194.5,0)"><path d="M0,9 L23,0 L23,91 L0,100 Z"/><path d="M7.82,-1.8 L22.08,5.58 L7.82,12.96 L-6.44,5.58 Z"/><path d="M4.6,82.14 L58,85.74 L58,91.72 L4.6,88.12 Z"/><path d="M58,85.9 L64.3,93.1 L58,100.3 L51.7,93.1 Z"/><path d="M23.92,13.18 L34.17,5.18 L32.32,2.81 L22.08,10.82 Z"/></g><g transform="translate(266,0)"><path d="M0,9 L23,0 L23,79.5 L0,88.5 Z"/><path d="M38,9 L61,0 L61,91 L38,100 Z"/><path d="M0,83.04 L61,85.74 L61,91.72 L0,89.02 Z"/><path d="M7.82,-1.8 L22.08,5.58 L7.82,12.96 L-6.44,5.58 Z"/><path d="M45.82,-1.8 L60.08,5.58 L45.82,12.96 L31.56,5.58 Z"/><path d="M49.5,87.22 L67.44,95.5 L49.5,103.78 L31.56,95.5 Z"/><path d="M23.92,13.18 L34.17,5.18 L32.32,2.81 L22.08,10.82 Z"/></g><g transform="translate(340.5,0)"><path d="M0,9 L23,0 L23,91 L0,100 Z"/><path d="M38,9 L61,0 L61,91 L38,100 Z"/><path d="M76,9 L99,0 L99,91 L76,100 Z"/><path d="M2.62,12.4 L46.14,55.4 L52.86,48.6 L9.34,5.6 Z"/><path d="M78.16,6.12 L45.68,49.12 L53.32,54.88 L85.8,11.88 Z"/><path d="M7.82,-1.8 L22.08,5.58 L7.82,12.96 L-6.44,5.58 Z"/><path d="M45.82,-1.8 L60.08,5.58 L45.82,12.96 L31.56,5.58 Z"/><path d="M83.82,-1.8 L98.08,5.58 L83.82,12.96 L69.56,5.58 Z"/><path d="M11.5,87.22 L29.44,95.5 L11.5,103.78 L-6.44,95.5 Z"/><path d="M87.5,87.22 L105.44,95.5 L87.5,103.78 L69.56,95.5 Z"/><path d="M23.92,13.18 L34.17,5.18 L32.32,2.81 L22.08,10.82 Z"/></g><g transform="translate(453,0)"><path d="M0,9 L23,0 L23,91 L0,100 Z"/><path d="M7.82,-1.8 L22.08,5.58 L7.82,12.96 L-6.44,5.58 Z"/><path d="M11.5,87.22 L29.44,95.5 L11.5,103.78 L-6.44,95.5 Z"/><path d="M23.92,13.18 L34.17,5.18 L32.32,2.81 L22.08,10.82 Z"/></g></g></g><g clip-path="url(#q12-1)" transform="translate(-8,0)"><g transform="translate(75,210) scale(1.79)"><g transform="translate(0,0)"><path d="M-6.74,13.11 L25.76,98.11 L47.24,89.89 L14.74,4.89 Z"/><path d="M61.17,-2.71 L28.67,91.29 L44.33,96.71 L76.83,2.71 Z"/><path d="M7.82,-1.8 L22.08,5.58 L7.82,12.96 L-6.44,5.58 Z"/><path d="M69,0 L74.6,6.3 L69,12.6 L63.4,6.3 Z"/><path d="M36.5,87.9 L44.2,96 L36.5,104.1 L28.8,96 Z"/><path d="M6.9,14.18 L17.15,6.18 L15.3,3.81 L5.06,11.82 Z"/></g><g transform="translate(86.5,0)"><path d="M0,9 L23,0 L23,91 L0,100 Z"/><path d="M7.82,-1.8 L22.08,5.58 L7.82,12.96 L-6.44,5.58 Z"/><path d="M11.5,87.22 L29.44,95.5 L11.5,103.78 L-6.44,95.5 Z"/><path d="M23.92,13.18 L34.17,5.18 L32.32,2.81 L22.08,10.82 Z"/></g><g transform="translate(123,0)"><path d="M0,9 L23,0 L23,91 L0,100 Z"/><path d="M7.82,-1.8 L22.08,5.58 L7.82,12.96 L-6.44,5.58 Z"/><path d="M4.6,82.14 L58,85.74 L58,91.72 L4.6,88.12 Z"/><path d="M58,85.9 L64.3,93.1 L58,100.3 L51.7,93.1 Z"/><path d="M23.92,13.18 L34.17,5.18 L32.32,2.81 L22.08,10.82 Z"/></g><g transform="translate(194.5,0)"><path d="M0,9 L23,0 L23,91 L0,100 Z"/><path d="M7.82,-1.8 L22.08,5.58 L7.82,12.96 L-6.44,5.58 Z"/><path d="M4.6,82.14 L58,85.74 L58,91.72 L4.6,88.12 Z"/><path d="M58,85.9 L64.3,93.1 L58,100.3 L51.7,93.1 Z"/><path d="M23.92,13.18 L34.17,5.18 L32.32,2.81 L22.08,10.82 Z"/></g><g transform="translate(266,0)"><path d="M0,9 L23,0 L23,79.5 L0,88.5 Z"/><path d="M38,9 L61,0 L61,91 L38,100 Z"/><path d="M0,83.04 L61,85.74 L61,91.72 L0,89.02 Z"/><path d="M7.82,-1.8 L22.08,5.58 L7.82,12.96 L-6.44,5.58 Z"/><path d="M45.82,-1.8 L60.08,5.58 L45.82,12.96 L31.56,5.58 Z"/><path d="M49.5,87.22 L67.44,95.5 L49.5,103.78 L31.56,95.5 Z"/><path d="M23.92,13.18 L34.17,5.18 L32.32,2.81 L22.08,10.82 Z"/></g><g transform="translate(340.5,0)"><path d="M0,9 L23,0 L23,91 L0,100 Z"/><path d="M38,9 L61,0 L61,91 L38,100 Z"/><path d="M76,9 L99,0 L99,91 L76,100 Z"/><path d="M2.62,12.4 L46.14,55.4 L52.86,48.6 L9.34,5.6 Z"/><path d="M78.16,6.12 L45.68,49.12 L53.32,54.88 L85.8,11.88 Z"/><path d="M7.82,-1.8 L22.08,5.58 L7.82,12.96 L-6.44,5.58 Z"/><path d="M45.82,-1.8 L60.08,5.58 L45.82,12.96 L31.56,5.58 Z"/><path d="M83.82,-1.8 L98.08,5.58 L83.82,12.96 L69.56,5.58 Z"/><path d="M11.5,87.22 L29.44,95.5 L11.5,103.78 L-6.44,95.5 Z"/><path d="M87.5,87.22 L105.44,95.5 L87.5,103.78 L69.56,95.5 Z"/><path d="M23.92,13.18 L34.17,5.18 L32.32,2.81 L22.08,10.82 Z"/></g><g transform="translate(453,0)"><path d="M0,9 L23,0 L23,91 L0,100 Z"/><path d="M7.82,-1.8 L22.08,5.58 L7.82,12.96 L-6.44,5.58 Z"/><path d="M11.5,87.22 L29.44,95.5 L11.5,103.78 L-6.44,95.5 Z"/><path d="M23.92,13.18 L34.17,5.18 L32.32,2.81 L22.08,10.82 Z"/></g></g></g><g clip-path="url(#q12-2)" transform="translate(2.06,0)"><g transform="translate(75,210) scale(1.79)"><g transform="translate(0,0)"><path d="M-6.74,13.11 L25.76,98.11 L47.24,89.89 L14.74,4.89 Z"/><path d="M61.17,-2.71 L28.67,91.29 L44.33,96.71 L76.83,2.71 Z"/><path d="M7.82,-1.8 L22.08,5.58 L7.82,12.96 L-6.44,5.58 Z"/><path d="M69,0 L74.6,6.3 L69,12.6 L63.4,6.3 Z"/><path d="M36.5,87.9 L44.2,96 L36.5,104.1 L28.8,96 Z"/><path d="M6.9,14.18 L17.15,6.18 L15.3,3.81 L5.06,11.82 Z"/></g><g transform="translate(86.5,0)"><path d="M0,9 L23,0 L23,91 L0,100 Z"/><path d="M7.82,-1.8 L22.08,5.58 L7.82,12.96 L-6.44,5.58 Z"/><path d="M11.5,87.22 L29.44,95.5 L11.5,103.78 L-6.44,95.5 Z"/><path d="M23.92,13.18 L34.17,5.18 L32.32,2.81 L22.08,10.82 Z"/></g><g transform="translate(123,0)"><path d="M0,9 L23,0 L23,91 L0,100 Z"/><path d="M7.82,-1.8 L22.08,5.58 L7.82,12.96 L-6.44,5.58 Z"/><path d="M4.6,82.14 L58,85.74 L58,91.72 L4.6,88.12 Z"/><path d="M58,85.9 L64.3,93.1 L58,100.3 L51.7,93.1 Z"/><path d="M23.92,13.18 L34.17,5.18 L32.32,2.81 L22.08,10.82 Z"/></g><g transform="translate(194.5,0)"><path d="M0,9 L23,0 L23,91 L0,100 Z"/><path d="M7.82,-1.8 L22.08,5.58 L7.82,12.96 L-6.44,5.58 Z"/><path d="M4.6,82.14 L58,85.74 L58,91.72 L4.6,88.12 Z"/><path d="M58,85.9 L64.3,93.1 L58,100.3 L51.7,93.1 Z"/><path d="M23.92,13.18 L34.17,5.18 L32.32,2.81 L22.08,10.82 Z"/></g><g transform="translate(266,0)"><path d="M0,9 L23,0 L23,79.5 L0,88.5 Z"/><path d="M38,9 L61,0 L61,91 L38,100 Z"/><path d="M0,83.04 L61,85.74 L61,91.72 L0,89.02 Z"/><path d="M7.82,-1.8 L22.08,5.58 L7.82,12.96 L-6.44,5.58 Z"/><path d="M45.82,-1.8 L60.08,5.58 L45.82,12.96 L31.56,5.58 Z"/><path d="M49.5,87.22 L67.44,95.5 L49.5,103.78 L31.56,95.5 Z"/><path d="M23.92,13.18 L34.17,5.18 L32.32,2.81 L22.08,10.82 Z"/></g><g transform="translate(340.5,0)"><path d="M0,9 L23,0 L23,91 L0,100 Z"/><path d="M38,9 L61,0 L61,91 L38,100 Z"/><path d="M76,9 L99,0 L99,91 L76,100 Z"/><path d="M2.62,12.4 L46.14,55.4 L52.86,48.6 L9.34,5.6 Z"/><path d="M78.16,6.12 L45.68,49.12 L53.32,54.88 L85.8,11.88 Z"/><path d="M7.82,-1.8 L22.08,5.58 L7.82,12.96 L-6.44,5.58 Z"/><path d="M45.82,-1.8 L60.08,5.58 L45.82,12.96 L31.56,5.58 Z"/><path d="M83.82,-1.8 L98.08,5.58 L83.82,12.96 L69.56,5.58 Z"/><path d="M11.5,87.22 L29.44,95.5 L11.5,103.78 L-6.44,95.5 Z"/><path d="M87.5,87.22 L105.44,95.5 L87.5,103.78 L69.56,95.5 Z"/><path d="M23.92,13.18 L34.17,5.18 L32.32,2.81 L22.08,10.82 Z"/></g><g transform="translate(453,0)"><path d="M0,9 L23,0 L23,91 L0,100 Z"/><path d="M7.82,-1.8 L22.08,5.58 L7.82,12.96 L-6.44,5.58 Z"/><path d="M11.5,87.22 L29.44,95.5 L11.5,103.78 L-6.44,95.5 Z"/><path d="M23.92,13.18 L34.17,5.18 L32.32,2.81 L22.08,10.82 Z"/></g></g></g><g clip-path="url(#q12-3)" transform="translate(13.25,0)"><g transform="translate(75,210) scale(1.79)"><g transform="translate(0,0)"><path d="M-6.74,13.11 L25.76,98.11 L47.24,89.89 L14.74,4.89 Z"/><path d="M61.17,-2.71 L28.67,91.29 L44.33,96.71 L76.83,2.71 Z"/><path d="M7.82,-1.8 L22.08,5.58 L7.82,12.96 L-6.44,5.58 Z"/><path d="M69,0 L74.6,6.3 L69,12.6 L63.4,6.3 Z"/><path d="M36.5,87.9 L44.2,96 L36.5,104.1 L28.8,96 Z"/><path d="M6.9,14.18 L17.15,6.18 L15.3,3.81 L5.06,11.82 Z"/></g><g transform="translate(86.5,0)"><path d="M0,9 L23,0 L23,91 L0,100 Z"/><path d="M7.82,-1.8 L22.08,5.58 L7.82,12.96 L-6.44,5.58 Z"/><path d="M11.5,87.22 L29.44,95.5 L11.5,103.78 L-6.44,95.5 Z"/><path d="M23.92,13.18 L34.17,5.18 L32.32,2.81 L22.08,10.82 Z"/></g><g transform="translate(123,0)"><path d="M0,9 L23,0 L23,91 L0,100 Z"/><path d="M7.82,-1.8 L22.08,5.58 L7.82,12.96 L-6.44,5.58 Z"/><path d="M4.6,82.14 L58,85.74 L58,91.72 L4.6,88.12 Z"/><path d="M58,85.9 L64.3,93.1 L58,100.3 L51.7,93.1 Z"/><path d="M23.92,13.18 L34.17,5.18 L32.32,2.81 L22.08,10.82 Z"/></g><g transform="translate(194.5,0)"><path d="M0,9 L23,0 L23,91 L0,100 Z"/><path d="M7.82,-1.8 L22.08,5.58 L7.82,12.96 L-6.44,5.58 Z"/><path d="M4.6,82.14 L58,85.74 L58,91.72 L4.6,88.12 Z"/><path d="M58,85.9 L64.3,93.1 L58,100.3 L51.7,93.1 Z"/><path d="M23.92,13.18 L34.17,5.18 L32.32,2.81 L22.08,10.82 Z"/></g><g transform="translate(266,0)"><path d="M0,9 L23,0 L23,79.5 L0,88.5 Z"/><path d="M38,9 L61,0 L61,91 L38,100 Z"/><path d="M0,83.04 L61,85.74 L61,91.72 L0,89.02 Z"/><path d="M7.82,-1.8 L22.08,5.58 L7.82,12.96 L-6.44,5.58 Z"/><path d="M45.82,-1.8 L60.08,5.58 L45.82,12.96 L31.56,5.58 Z"/><path d="M49.5,87.22 L67.44,95.5 L49.5,103.78 L31.56,95.5 Z"/><path d="M23.92,13.18 L34.17,5.18 L32.32,2.81 L22.08,10.82 Z"/></g><g transform="translate(340.5,0)"><path d="M0,9 L23,0 L23,91 L0,100 Z"/><path d="M38,9 L61,0 L61,91 L38,100 Z"/><path d="M76,9 L99,0 L99,91 L76,100 Z"/><path d="M2.62,12.4 L46.14,55.4 L52.86,48.6 L9.34,5.6 Z"/><path d="M78.16,6.12 L45.68,49.12 L53.32,54.88 L85.8,11.88 Z"/><path d="M7.82,-1.8 L22.08,5.58 L7.82,12.96 L-6.44,5.58 Z"/><path d="M45.82,-1.8 L60.08,5.58 L45.82,12.96 L31.56,5.58 Z"/><path d="M83.82,-1.8 L98.08,5.58 L83.82,12.96 L69.56,5.58 Z"/><path d="M11.5,87.22 L29.44,95.5 L11.5,103.78 L-6.44,95.5 Z"/><path d="M87.5,87.22 L105.44,95.5 L87.5,103.78 L69.56,95.5 Z"/><path d="M23.92,13.18 L34.17,5.18 L32.32,2.81 L22.08,10.82 Z"/></g><g transform="translate(453,0)"><path d="M0,9 L23,0 L23,91 L0,100 Z"/><path d="M7.82,-1.8 L22.08,5.58 L7.82,12.96 L-6.44,5.58 Z"/><path d="M11.5,87.22 L29.44,95.5 L11.5,103.78 L-6.44,95.5 Z"/><path d="M23.92,13.18 L34.17,5.18 L32.32,2.81 L22.08,10.82 Z"/></g></g></g><g clip-path="url(#q12-4)" transform="translate(5.16,0)"><g transform="translate(75,210) scale(1.79)"><g transform="translate(0,0)"><path d="M-6.74,13.11 L25.76,98.11 L47.24,89.89 L14.74,4.89 Z"/><path d="M61.17,-2.71 L28.67,91.29 L44.33,96.71 L76.83,2.71 Z"/><path d="M7.82,-1.8 L22.08,5.58 L7.82,12.96 L-6.44,5.58 Z"/><path d="M69,0 L74.6,6.3 L69,12.6 L63.4,6.3 Z"/><path d="M36.5,87.9 L44.2,96 L36.5,104.1 L28.8,96 Z"/><path d="M6.9,14.18 L17.15,6.18 L15.3,3.81 L5.06,11.82 Z"/></g><g transform="translate(86.5,0)"><path d="M0,9 L23,0 L23,91 L0,100 Z"/><path d="M7.82,-1.8 L22.08,5.58 L7.82,12.96 L-6.44,5.58 Z"/><path d="M11.5,87.22 L29.44,95.5 L11.5,103.78 L-6.44,95.5 Z"/><path d="M23.92,13.18 L34.17,5.18 L32.32,2.81 L22.08,10.82 Z"/></g><g transform="translate(123,0)"><path d="M0,9 L23,0 L23,91 L0,100 Z"/><path d="M7.82,-1.8 L22.08,5.58 L7.82,12.96 L-6.44,5.58 Z"/><path d="M4.6,82.14 L58,85.74 L58,91.72 L4.6,88.12 Z"/><path d="M58,85.9 L64.3,93.1 L58,100.3 L51.7,93.1 Z"/><path d="M23.92,13.18 L34.17,5.18 L32.32,2.81 L22.08,10.82 Z"/></g><g transform="translate(194.5,0)"><path d="M0,9 L23,0 L23,91 L0,100 Z"/><path d="M7.82,-1.8 L22.08,5.58 L7.82,12.96 L-6.44,5.58 Z"/><path d="M4.6,82.14 L58,85.74 L58,91.72 L4.6,88.12 Z"/><path d="M58,85.9 L64.3,93.1 L58,100.3 L51.7,93.1 Z"/><path d="M23.92,13.18 L34.17,5.18 L32.32,2.81 L22.08,10.82 Z"/></g><g transform="translate(266,0)"><path d="M0,9 L23,0 L23,79.5 L0,88.5 Z"/><path d="M38,9 L61,0 L61,91 L38,100 Z"/><path d="M0,83.04 L61,85.74 L61,91.72 L0,89.02 Z"/><path d="M7.82,-1.8 L22.08,5.58 L7.82,12.96 L-6.44,5.58 Z"/><path d="M45.82,-1.8 L60.08,5.58 L45.82,12.96 L31.56,5.58 Z"/><path d="M49.5,87.22 L67.44,95.5 L49.5,103.78 L31.56,95.5 Z"/><path d="M23.92,13.18 L34.17,5.18 L32.32,2.81 L22.08,10.82 Z"/></g><g transform="translate(340.5,0)"><path d="M0,9 L23,0 L23,91 L0,100 Z"/><path d="M38,9 L61,0 L61,91 L38,100 Z"/><path d="M76,9 L99,0 L99,91 L76,100 Z"/><path d="M2.62,12.4 L46.14,55.4 L52.86,48.6 L9.34,5.6 Z"/><path d="M78.16,6.12 L45.68,49.12 L53.32,54.88 L85.8,11.88 Z"/><path d="M7.82,-1.8 L22.08,5.58 L7.82,12.96 L-6.44,5.58 Z"/><path d="M45.82,-1.8 L60.08,5.58 L45.82,12.96 L31.56,5.58 Z"/><path d="M83.82,-1.8 L98.08,5.58 L83.82,12.96 L69.56,5.58 Z"/><path d="M11.5,87.22 L29.44,95.5 L11.5,103.78 L-6.44,95.5 Z"/><path d="M87.5,87.22 L105.44,95.5 L87.5,103.78 L69.56,95.5 Z"/><path d="M23.92,13.18 L34.17,5.18 L32.32,2.81 L22.08,10.82 Z"/></g><g transform="translate(453,0)"><path d="M0,9 L23,0 L23,91 L0,100 Z"/><path d="M7.82,-1.8 L22.08,5.58 L7.82,12.96 L-6.44,5.58 Z"/><path d="M11.5,87.22 L29.44,95.5 L11.5,103.78 L-6.44,95.5 Z"/><path d="M23.92,13.18 L34.17,5.18 L32.32,2.81 L22.08,10.82 Z"/></g></g></g><g clip-path="url(#q12-5)" transform="translate(-6.37,0)"><g transform="translate(75,210) scale(1.79)"><g transform="translate(0,0)"><path d="M-6.74,13.11 L25.76,98.11 L47.24,89.89 L14.74,4.89 Z"/><path d="M61.17,-2.71 L28.67,91.29 L44.33,96.71 L76.83,2.71 Z"/><path d="M7.82,-1.8 L22.08,5.58 L7.82,12.96 L-6.44,5.58 Z"/><path d="M69,0 L74.6,6.3 L69,12.6 L63.4,6.3 Z"/><path d="M36.5,87.9 L44.2,96 L36.5,104.1 L28.8,96 Z"/><path d="M6.9,14.18 L17.15,6.18 L15.3,3.81 L5.06,11.82 Z"/></g><g transform="translate(86.5,0)"><path d="M0,9 L23,0 L23,91 L0,100 Z"/><path d="M7.82,-1.8 L22.08,5.58 L7.82,12.96 L-6.44,5.58 Z"/><path d="M11.5,87.22 L29.44,95.5 L11.5,103.78 L-6.44,95.5 Z"/><path d="M23.92,13.18 L34.17,5.18 L32.32,2.81 L22.08,10.82 Z"/></g><g transform="translate(123,0)"><path d="M0,9 L23,0 L23,91 L0,100 Z"/><path d="M7.82,-1.8 L22.08,5.58 L7.82,12.96 L-6.44,5.58 Z"/><path d="M4.6,82.14 L58,85.74 L58,91.72 L4.6,88.12 Z"/><path d="M58,85.9 L64.3,93.1 L58,100.3 L51.7,93.1 Z"/><path d="M23.92,13.18 L34.17,5.18 L32.32,2.81 L22.08,10.82 Z"/></g><g transform="translate(194.5,0)"><path d="M0,9 L23,0 L23,91 L0,100 Z"/><path d="M7.82,-1.8 L22.08,5.58 L7.82,12.96 L-6.44,5.58 Z"/><path d="M4.6,82.14 L58,85.74 L58,91.72 L4.6,88.12 Z"/><path d="M58,85.9 L64.3,93.1 L58,100.3 L51.7,93.1 Z"/><path d="M23.92,13.18 L34.17,5.18 L32.32,2.81 L22.08,10.82 Z"/></g><g transform="translate(266,0)"><path d="M0,9 L23,0 L23,79.5 L0,88.5 Z"/><path d="M38,9 L61,0 L61,91 L38,100 Z"/><path d="M0,83.04 L61,85.74 L61,91.72 L0,89.02 Z"/><path d="M7.82,-1.8 L22.08,5.58 L7.82,12.96 L-6.44,5.58 Z"/><path d="M45.82,-1.8 L60.08,5.58 L45.82,12.96 L31.56,5.58 Z"/><path d="M49.5,87.22 L67.44,95.5 L49.5,103.78 L31.56,95.5 Z"/><path d="M23.92,13.18 L34.17,5.18 L32.32,2.81 L22.08,10.82 Z"/></g><g transform="translate(340.5,0)"><path d="M0,9 L23,0 L23,91 L0,100 Z"/><path d="M38,9 L61,0 L61,91 L38,100 Z"/><path d="M76,9 L99,0 L99,91 L76,100 Z"/><path d="M2.62,12.4 L46.14,55.4 L52.86,48.6 L9.34,5.6 Z"/><path d="M78.16,6.12 L45.68,49.12 L53.32,54.88 L85.8,11.88 Z"/><path d="M7.82,-1.8 L22.08,5.58 L7.82,12.96 L-6.44,5.58 Z"/><path d="M45.82,-1.8 L60.08,5.58 L45.82,12.96 L31.56,5.58 Z"/><path d="M83.82,-1.8 L98.08,5.58 L83.82,12.96 L69.56,5.58 Z"/><path d="M11.5,87.22 L29.44,95.5 L11.5,103.78 L-6.44,95.5 Z"/><path d="M87.5,87.22 L105.44,95.5 L87.5,103.78 L69.56,95.5 Z"/><path d="M23.92,13.18 L34.17,5.18 L32.32,2.81 L22.08,10.82 Z"/></g><g transform="translate(453,0)"><path d="M0,9 L23,0 L23,91 L0,100 Z"/><path d="M7.82,-1.8 L22.08,5.58 L7.82,12.96 L-6.44,5.58 Z"/><path d="M11.5,87.22 L29.44,95.5 L11.5,103.78 L-6.44,95.5 Z"/><path d="M23.92,13.18 L34.17,5.18 L32.32,2.81 L22.08,10.82 Z"/></g></g></g><g clip-path="url(#q12-6)" transform="translate(-6.41,0)"><g transform="translate(75,210) scale(1.79)"><g transform="translate(0,0)"><path d="M-6.74,13.11 L25.76,98.11 L47.24,89.89 L14.74,4.89 Z"/><path d="M61.17,-2.71 L28.67,91.29 L44.33,96.71 L76.83,2.71 Z"/><path d="M7.82,-1.8 L22.08,5.58 L7.82,12.96 L-6.44,5.58 Z"/><path d="M69,0 L74.6,6.3 L69,12.6 L63.4,6.3 Z"/><path d="M36.5,87.9 L44.2,96 L36.5,104.1 L28.8,96 Z"/><path d="M6.9,14.18 L17.15,6.18 L15.3,3.81 L5.06,11.82 Z"/></g><g transform="translate(86.5,0)"><path d="M0,9 L23,0 L23,91 L0,100 Z"/><path d="M7.82,-1.8 L22.08,5.58 L7.82,12.96 L-6.44,5.58 Z"/><path d="M11.5,87.22 L29.44,95.5 L11.5,103.78 L-6.44,95.5 Z"/><path d="M23.92,13.18 L34.17,5.18 L32.32,2.81 L22.08,10.82 Z"/></g><g transform="translate(123,0)"><path d="M0,9 L23,0 L23,91 L0,100 Z"/><path d="M7.82,-1.8 L22.08,5.58 L7.82,12.96 L-6.44,5.58 Z"/><path d="M4.6,82.14 L58,85.74 L58,91.72 L4.6,88.12 Z"/><path d="M58,85.9 L64.3,93.1 L58,100.3 L51.7,93.1 Z"/><path d="M23.92,13.18 L34.17,5.18 L32.32,2.81 L22.08,10.82 Z"/></g><g transform="translate(194.5,0)"><path d="M0,9 L23,0 L23,91 L0,100 Z"/><path d="M7.82,-1.8 L22.08,5.58 L7.82,12.96 L-6.44,5.58 Z"/><path d="M4.6,82.14 L58,85.74 L58,91.72 L4.6,88.12 Z"/><path d="M58,85.9 L64.3,93.1 L58,100.3 L51.7,93.1 Z"/><path d="M23.92,13.18 L34.17,5.18 L32.32,2.81 L22.08,10.82 Z"/></g><g transform="translate(266,0)"><path d="M0,9 L23,0 L23,79.5 L0,88.5 Z"/><path d="M38,9 L61,0 L61,91 L38,100 Z"/><path d="M0,83.04 L61,85.74 L61,91.72 L0,89.02 Z"/><path d="M7.82,-1.8 L22.08,5.58 L7.82,12.96 L-6.44,5.58 Z"/><path d="M45.82,-1.8 L60.08,5.58 L45.82,12.96 L31.56,5.58 Z"/><path d="M49.5,87.22 L67.44,95.5 L49.5,103.78 L31.56,95.5 Z"/><path d="M23.92,13.18 L34.17,5.18 L32.32,2.81 L22.08,10.82 Z"/></g><g transform="translate(340.5,0)"><path d="M0,9 L23,0 L23,91 L0,100 Z"/><path d="M38,9 L61,0 L61,91 L38,100 Z"/><path d="M76,9 L99,0 L99,91 L76,100 Z"/><path d="M2.62,12.4 L46.14,55.4 L52.86,48.6 L9.34,5.6 Z"/><path d="M78.16,6.12 L45.68,49.12 L53.32,54.88 L85.8,11.88 Z"/><path d="M7.82,-1.8 L22.08,5.58 L7.82,12.96 L-6.44,5.58 Z"/><path d="M45.82,-1.8 L60.08,5.58 L45.82,12.96 L31.56,5.58 Z"/><path d="M83.82,-1.8 L98.08,5.58 L83.82,12.96 L69.56,5.58 Z"/><path d="M11.5,87.22 L29.44,95.5 L11.5,103.78 L-6.44,95.5 Z"/><path d="M87.5,87.22 L105.44,95.5 L87.5,103.78 L69.56,95.5 Z"/><path d="M23.92,13.18 L34.17,5.18 L32.32,2.81 L22.08,10.82 Z"/></g><g transform="translate(453,0)"><path d="M0,9 L23,0 L23,91 L0,100 Z"/><path d="M7.82,-1.8 L22.08,5.58 L7.82,12.96 L-6.44,5.58 Z"/><path d="M11.5,87.22 L29.44,95.5 L11.5,103.78 L-6.44,95.5 Z"/><path d="M23.92,13.18 L34.17,5.18 L32.32,2.81 L22.08,10.82 Z"/></g></g></g><defs><clipPath id="q13-0"><rect x="-26.56" y="0" width="978.12" height="84.92"/></clipPath><clipPath id="q13-1"><rect x="-26.56" y="84.52" width="978.12" height="84.92"/></clipPath><clipPath id="q13-2"><rect x="-26.56" y="169.04" width="978.12" height="84.92"/></clipPath><clipPath id="q13-3"><rect x="-26.56" y="253.57" width="978.12" height="84.92"/></clipPath><clipPath id="q13-4"><rect x="-26.56" y="338.09" width="978.12" height="84.92"/></clipPath><clipPath id="q13-5"><rect x="-26.56" y="422.61" width="978.12" height="84.92"/></clipPath><clipPath id="q13-6"><rect x="-26.56" y="507.13" width="978.12" height="84.92"/></clipPath></defs><g clip-path="url(#q13-0)" transform="translate(6.98,0)"><g transform="translate(75,414.57) scale(1.77)"><g transform="translate(0,0)"><path d="M0,9 L23,0 L23,91 L0,100 Z"/><path d="M38,9 L61,0 L61,91 L38,100 Z"/><path d="M1.28,15.62 L44.8,93.62 L54.2,88.38 L10.68,10.38 Z"/><path d="M7.82,-1.8 L22.08,5.58 L7.82,12.96 L-6.44,5.58 Z"/><path d="M45.82,-1.8 L60.08,5.58 L45.82,12.96 L31.56,5.58 Z"/><path d="M11.5,87.22 L29.44,95.5 L11.5,103.78 L-6.44,95.5 Z"/><path d="M49.5,87.22 L67.44,95.5 L49.5,103.78 L31.56,95.5 Z"/><path d="M23.92,13.18 L34.17,5.18 L32.32,2.81 L22.08,10.82 Z"/></g><g transform="translate(74.5,0)"><path d="M44,9 L67,0 L67,91 L44,100 Z"/><path d="M39.76,3.72 L-5.22,90.72 L15.22,101.28 L60.2,14.28 Z"/><path d="M8,55.3 L67,58 L67,63.98 L8,61.28 Z"/><path d="M51.82,-1.8 L66.08,5.58 L51.82,12.96 L37.56,5.58 Z"/><path d="M55.5,87.22 L73.44,95.5 L55.5,103.78 L37.56,95.5 Z"/><path d="M6,87.35 L13,95 L6,102.65 L-1,95 Z"/><path d="M67.92,13.18 L78.17,5.18 L76.32,2.81 L66.08,10.82 Z"/></g><g transform="translate(155,0)"><path d="M20,14.4 L43,5.4 L43,91 L20,100 Z"/><path d="M0,8.55 L63,3.6 L63,9.58 L0,14.53 Z"/><path d="M2,1.8 L7.6,8.1 L2,14.4 L-3.6,8.1 Z"/><path d="M61,-1.8 L66.6,4.5 L61,10.8 L55.4,4.5 Z"/><path d="M31.5,87.22 L49.44,95.5 L31.5,103.78 L13.56,95.5 Z"/></g><g transform="translate(231.5,0)"><path d="M0,9 L23,0 L23,91 L0,100 Z"/><path d="M7.82,-1.8 L22.08,5.58 L7.82,12.96 L-6.44,5.58 Z"/><path d="M11.5,87.22 L29.44,95.5 L11.5,103.78 L-6.44,95.5 Z"/><path d="M23.92,13.18 L34.17,5.18 L32.32,2.81 L22.08,10.82 Z"/></g><g transform="translate(268,0)"><path d="M0,19.35 L23,10.35 L23,80.65 L0,89.65 Z"/><path d="M42,19.35 L65,10.35 L65,80.65 L42,89.65 Z"/><path d="M0,8.19 L65,4.14 L65,10.12 L0,14.17 Z"/><path d="M0,79.39 L65,83.44 L65,89.42 L0,85.37 Z"/><path d="M32.5,0.58 L38.8,5.98 L32.5,11.38 L26.2,5.98 Z"/><path d="M32.5,88.62 L38.8,94.02 L32.5,99.42 L26.2,94.02 Z"/></g><g transform="translate(346.5,0)"><path d="M0,9 L23,0 L23,91 L0,100 Z"/><path d="M38,9 L61,0 L61,91 L38,100 Z"/><path d="M1.28,15.62 L44.8,93.62 L54.2,88.38 L10.68,10.38 Z"/><path d="M7.82,-1.8 L22.08,5.58 L7.82,12.96 L-6.44,5.58 Z"/><path d="M45.82,-1.8 L60.08,5.58 L45.82,12.96 L31.56,5.58 Z"/><path d="M11.5,87.22 L29.44,95.5 L11.5,103.78 L-6.44,95.5 Z"/><path d="M49.5,87.22 L67.44,95.5 L49.5,103.78 L31.56,95.5 Z"/><path d="M23.92,13.18 L34.17,5.18 L32.32,2.81 L22.08,10.82 Z"/></g><g transform="translate(421,0)"><path d="M3,8.1 L59,3.15 L59,21.09 L3,26.04 Z"/><path d="M4.32,36.8 L40.32,74.8 L54.68,61.2 L18.68,23.2 Z"/><path d="M0,76.65 L56,81.6 L56,99.54 L0,94.59 Z"/><path d="M59,-0.45 L65.65,6.75 L59,13.95 L52.35,6.75 Z"/><path d="M1,87.85 L7.65,95.05 L1,102.25 L-5.65,95.05 Z"/><path d="M55.98,13.2 L49.2,21.87 L51.25,23.47 L58.02,14.8 Z"/></g></g></g><g clip-path="url(#q13-1)" transform="translate(1.96,0)"><g transform="translate(75,414.57) scale(1.77)"><g transform="translate(0,0)"><path d="M0,9 L23,0 L23,91 L0,100 Z"/><path d="M38,9 L61,0 L61,91 L38,100 Z"/><path d="M1.28,15.62 L44.8,93.62 L54.2,88.38 L10.68,10.38 Z"/><path d="M7.82,-1.8 L22.08,5.58 L7.82,12.96 L-6.44,5.58 Z"/><path d="M45.82,-1.8 L60.08,5.58 L45.82,12.96 L31.56,5.58 Z"/><path d="M11.5,87.22 L29.44,95.5 L11.5,103.78 L-6.44,95.5 Z"/><path d="M49.5,87.22 L67.44,95.5 L49.5,103.78 L31.56,95.5 Z"/><path d="M23.92,13.18 L34.17,5.18 L32.32,2.81 L22.08,10.82 Z"/></g><g transform="translate(74.5,0)"><path d="M44,9 L67,0 L67,91 L44,100 Z"/><path d="M39.76,3.72 L-5.22,90.72 L15.22,101.28 L60.2,14.28 Z"/><path d="M8,55.3 L67,58 L67,63.98 L8,61.28 Z"/><path d="M51.82,-1.8 L66.08,5.58 L51.82,12.96 L37.56,5.58 Z"/><path d="M55.5,87.22 L73.44,95.5 L55.5,103.78 L37.56,95.5 Z"/><path d="M6,87.35 L13,95 L6,102.65 L-1,95 Z"/><path d="M67.92,13.18 L78.17,5.18 L76.32,2.81 L66.08,10.82 Z"/></g><g transform="translate(155,0)"><path d="M20,14.4 L43,5.4 L43,91 L20,100 Z"/><path d="M0,8.55 L63,3.6 L63,9.58 L0,14.53 Z"/><path d="M2,1.8 L7.6,8.1 L2,14.4 L-3.6,8.1 Z"/><path d="M61,-1.8 L66.6,4.5 L61,10.8 L55.4,4.5 Z"/><path d="M31.5,87.22 L49.44,95.5 L31.5,103.78 L13.56,95.5 Z"/></g><g transform="translate(231.5,0)"><path d="M0,9 L23,0 L23,91 L0,100 Z"/><path d="M7.82,-1.8 L22.08,5.58 L7.82,12.96 L-6.44,5.58 Z"/><path d="M11.5,87.22 L29.44,95.5 L11.5,103.78 L-6.44,95.5 Z"/><path d="M23.92,13.18 L34.17,5.18 L32.32,2.81 L22.08,10.82 Z"/></g><g transform="translate(268,0)"><path d="M0,19.35 L23,10.35 L23,80.65 L0,89.65 Z"/><path d="M42,19.35 L65,10.35 L65,80.65 L42,89.65 Z"/><path d="M0,8.19 L65,4.14 L65,10.12 L0,14.17 Z"/><path d="M0,79.39 L65,83.44 L65,89.42 L0,85.37 Z"/><path d="M32.5,0.58 L38.8,5.98 L32.5,11.38 L26.2,5.98 Z"/><path d="M32.5,88.62 L38.8,94.02 L32.5,99.42 L26.2,94.02 Z"/></g><g transform="translate(346.5,0)"><path d="M0,9 L23,0 L23,91 L0,100 Z"/><path d="M38,9 L61,0 L61,91 L38,100 Z"/><path d="M1.28,15.62 L44.8,93.62 L54.2,88.38 L10.68,10.38 Z"/><path d="M7.82,-1.8 L22.08,5.58 L7.82,12.96 L-6.44,5.58 Z"/><path d="M45.82,-1.8 L60.08,5.58 L45.82,12.96 L31.56,5.58 Z"/><path d="M11.5,87.22 L29.44,95.5 L11.5,103.78 L-6.44,95.5 Z"/><path d="M49.5,87.22 L67.44,95.5 L49.5,103.78 L31.56,95.5 Z"/><path d="M23.92,13.18 L34.17,5.18 L32.32,2.81 L22.08,10.82 Z"/></g><g transform="translate(421,0)"><path d="M3,8.1 L59,3.15 L59,21.09 L3,26.04 Z"/><path d="M4.32,36.8 L40.32,74.8 L54.68,61.2 L18.68,23.2 Z"/><path d="M0,76.65 L56,81.6 L56,99.54 L0,94.59 Z"/><path d="M59,-0.45 L65.65,6.75 L59,13.95 L52.35,6.75 Z"/><path d="M1,87.85 L7.65,95.05 L1,102.25 L-5.65,95.05 Z"/><path d="M55.98,13.2 L49.2,21.87 L51.25,23.47 L58.02,14.8 Z"/></g></g></g><g clip-path="url(#q13-2)" transform="translate(-9.57,0)"><g transform="translate(75,414.57) scale(1.77)"><g transform="translate(0,0)"><path d="M0,9 L23,0 L23,91 L0,100 Z"/><path d="M38,9 L61,0 L61,91 L38,100 Z"/><path d="M1.28,15.62 L44.8,93.62 L54.2,88.38 L10.68,10.38 Z"/><path d="M7.82,-1.8 L22.08,5.58 L7.82,12.96 L-6.44,5.58 Z"/><path d="M45.82,-1.8 L60.08,5.58 L45.82,12.96 L31.56,5.58 Z"/><path d="M11.5,87.22 L29.44,95.5 L11.5,103.78 L-6.44,95.5 Z"/><path d="M49.5,87.22 L67.44,95.5 L49.5,103.78 L31.56,95.5 Z"/><path d="M23.92,13.18 L34.17,5.18 L32.32,2.81 L22.08,10.82 Z"/></g><g transform="translate(74.5,0)"><path d="M44,9 L67,0 L67,91 L44,100 Z"/><path d="M39.76,3.72 L-5.22,90.72 L15.22,101.28 L60.2,14.28 Z"/><path d="M8,55.3 L67,58 L67,63.98 L8,61.28 Z"/><path d="M51.82,-1.8 L66.08,5.58 L51.82,12.96 L37.56,5.58 Z"/><path d="M55.5,87.22 L73.44,95.5 L55.5,103.78 L37.56,95.5 Z"/><path d="M6,87.35 L13,95 L6,102.65 L-1,95 Z"/><path d="M67.92,13.18 L78.17,5.18 L76.32,2.81 L66.08,10.82 Z"/></g><g transform="translate(155,0)"><path d="M20,14.4 L43,5.4 L43,91 L20,100 Z"/><path d="M0,8.55 L63,3.6 L63,9.58 L0,14.53 Z"/><path d="M2,1.8 L7.6,8.1 L2,14.4 L-3.6,8.1 Z"/><path d="M61,-1.8 L66.6,4.5 L61,10.8 L55.4,4.5 Z"/><path d="M31.5,87.22 L49.44,95.5 L31.5,103.78 L13.56,95.5 Z"/></g><g transform="translate(231.5,0)"><path d="M0,9 L23,0 L23,91 L0,100 Z"/><path d="M7.82,-1.8 L22.08,5.58 L7.82,12.96 L-6.44,5.58 Z"/><path d="M11.5,87.22 L29.44,95.5 L11.5,103.78 L-6.44,95.5 Z"/><path d="M23.92,13.18 L34.17,5.18 L32.32,2.81 L22.08,10.82 Z"/></g><g transform="translate(268,0)"><path d="M0,19.35 L23,10.35 L23,80.65 L0,89.65 Z"/><path d="M42,19.35 L65,10.35 L65,80.65 L42,89.65 Z"/><path d="M0,8.19 L65,4.14 L65,10.12 L0,14.17 Z"/><path d="M0,79.39 L65,83.44 L65,89.42 L0,85.37 Z"/><path d="M32.5,0.58 L38.8,5.98 L32.5,11.38 L26.2,5.98 Z"/><path d="M32.5,88.62 L38.8,94.02 L32.5,99.42 L26.2,94.02 Z"/></g><g transform="translate(346.5,0)"><path d="M0,9 L23,0 L23,91 L0,100 Z"/><path d="M38,9 L61,0 L61,91 L38,100 Z"/><path d="M1.28,15.62 L44.8,93.62 L54.2,88.38 L10.68,10.38 Z"/><path d="M7.82,-1.8 L22.08,5.58 L7.82,12.96 L-6.44,5.58 Z"/><path d="M45.82,-1.8 L60.08,5.58 L45.82,12.96 L31.56,5.58 Z"/><path d="M11.5,87.22 L29.44,95.5 L11.5,103.78 L-6.44,95.5 Z"/><path d="M49.5,87.22 L67.44,95.5 L49.5,103.78 L31.56,95.5 Z"/><path d="M23.92,13.18 L34.17,5.18 L32.32,2.81 L22.08,10.82 Z"/></g><g transform="translate(421,0)"><path d="M3,8.1 L59,3.15 L59,21.09 L3,26.04 Z"/><path d="M4.32,36.8 L40.32,74.8 L54.68,61.2 L18.68,23.2 Z"/><path d="M0,76.65 L56,81.6 L56,99.54 L0,94.59 Z"/><path d="M59,-0.45 L65.65,6.75 L59,13.95 L52.35,6.75 Z"/><path d="M1,87.85 L7.65,95.05 L1,102.25 L-5.65,95.05 Z"/><path d="M55.98,13.2 L49.2,21.87 L51.25,23.47 L58.02,14.8 Z"/></g></g></g><g clip-path="url(#q13-3)" transform="translate(-10.2,0)"><g transform="translate(75,414.57) scale(1.77)"><g transform="translate(0,0)"><path d="M0,9 L23,0 L23,91 L0,100 Z"/><path d="M38,9 L61,0 L61,91 L38,100 Z"/><path d="M1.28,15.62 L44.8,93.62 L54.2,88.38 L10.68,10.38 Z"/><path d="M7.82,-1.8 L22.08,5.58 L7.82,12.96 L-6.44,5.58 Z"/><path d="M45.82,-1.8 L60.08,5.58 L45.82,12.96 L31.56,5.58 Z"/><path d="M11.5,87.22 L29.44,95.5 L11.5,103.78 L-6.44,95.5 Z"/><path d="M49.5,87.22 L67.44,95.5 L49.5,103.78 L31.56,95.5 Z"/><path d="M23.92,13.18 L34.17,5.18 L32.32,2.81 L22.08,10.82 Z"/></g><g transform="translate(74.5,0)"><path d="M44,9 L67,0 L67,91 L44,100 Z"/><path d="M39.76,3.72 L-5.22,90.72 L15.22,101.28 L60.2,14.28 Z"/><path d="M8,55.3 L67,58 L67,63.98 L8,61.28 Z"/><path d="M51.82,-1.8 L66.08,5.58 L51.82,12.96 L37.56,5.58 Z"/><path d="M55.5,87.22 L73.44,95.5 L55.5,103.78 L37.56,95.5 Z"/><path d="M6,87.35 L13,95 L6,102.65 L-1,95 Z"/><path d="M67.92,13.18 L78.17,5.18 L76.32,2.81 L66.08,10.82 Z"/></g><g transform="translate(155,0)"><path d="M20,14.4 L43,5.4 L43,91 L20,100 Z"/><path d="M0,8.55 L63,3.6 L63,9.58 L0,14.53 Z"/><path d="M2,1.8 L7.6,8.1 L2,14.4 L-3.6,8.1 Z"/><path d="M61,-1.8 L66.6,4.5 L61,10.8 L55.4,4.5 Z"/><path d="M31.5,87.22 L49.44,95.5 L31.5,103.78 L13.56,95.5 Z"/></g><g transform="translate(231.5,0)"><path d="M0,9 L23,0 L23,91 L0,100 Z"/><path d="M7.82,-1.8 L22.08,5.58 L7.82,12.96 L-6.44,5.58 Z"/><path d="M11.5,87.22 L29.44,95.5 L11.5,103.78 L-6.44,95.5 Z"/><path d="M23.92,13.18 L34.17,5.18 L32.32,2.81 L22.08,10.82 Z"/></g><g transform="translate(268,0)"><path d="M0,19.35 L23,10.35 L23,80.65 L0,89.65 Z"/><path d="M42,19.35 L65,10.35 L65,80.65 L42,89.65 Z"/><path d="M0,8.19 L65,4.14 L65,10.12 L0,14.17 Z"/><path d="M0,79.39 L65,83.44 L65,89.42 L0,85.37 Z"/><path d="M32.5,0.58 L38.8,5.98 L32.5,11.38 L26.2,5.98 Z"/><path d="M32.5,88.62 L38.8,94.02 L32.5,99.42 L26.2,94.02 Z"/></g><g transform="translate(346.5,0)"><path d="M0,9 L23,0 L23,91 L0,100 Z"/><path d="M38,9 L61,0 L61,91 L38,100 Z"/><path d="M1.28,15.62 L44.8,93.62 L54.2,88.38 L10.68,10.38 Z"/><path d="M7.82,-1.8 L22.08,5.58 L7.82,12.96 L-6.44,5.58 Z"/><path d="M45.82,-1.8 L60.08,5.58 L45.82,12.96 L31.56,5.58 Z"/><path d="M11.5,87.22 L29.44,95.5 L11.5,103.78 L-6.44,95.5 Z"/><path d="M49.5,87.22 L67.44,95.5 L49.5,103.78 L31.56,95.5 Z"/><path d="M23.92,13.18 L34.17,5.18 L32.32,2.81 L22.08,10.82 Z"/></g><g transform="translate(421,0)"><path d="M3,8.1 L59,3.15 L59,21.09 L3,26.04 Z"/><path d="M4.32,36.8 L40.32,74.8 L54.68,61.2 L18.68,23.2 Z"/><path d="M0,76.65 L56,81.6 L56,99.54 L0,94.59 Z"/><path d="M59,-0.45 L65.65,6.75 L59,13.95 L52.35,6.75 Z"/><path d="M1,87.85 L7.65,95.05 L1,102.25 L-5.65,95.05 Z"/><path d="M55.98,13.2 L49.2,21.87 L51.25,23.47 L58.02,14.8 Z"/></g></g></g><g clip-path="url(#q13-4)" transform="translate(4.01,0)"><g transform="translate(75,414.57) scale(1.77)"><g transform="translate(0,0)"><path d="M0,9 L23,0 L23,91 L0,100 Z"/><path d="M38,9 L61,0 L61,91 L38,100 Z"/><path d="M1.28,15.62 L44.8,93.62 L54.2,88.38 L10.68,10.38 Z"/><path d="M7.82,-1.8 L22.08,5.58 L7.82,12.96 L-6.44,5.58 Z"/><path d="M45.82,-1.8 L60.08,5.58 L45.82,12.96 L31.56,5.58 Z"/><path d="M11.5,87.22 L29.44,95.5 L11.5,103.78 L-6.44,95.5 Z"/><path d="M49.5,87.22 L67.44,95.5 L49.5,103.78 L31.56,95.5 Z"/><path d="M23.92,13.18 L34.17,5.18 L32.32,2.81 L22.08,10.82 Z"/></g><g transform="translate(74.5,0)"><path d="M44,9 L67,0 L67,91 L44,100 Z"/><path d="M39.76,3.72 L-5.22,90.72 L15.22,101.28 L60.2,14.28 Z"/><path d="M8,55.3 L67,58 L67,63.98 L8,61.28 Z"/><path d="M51.82,-1.8 L66.08,5.58 L51.82,12.96 L37.56,5.58 Z"/><path d="M55.5,87.22 L73.44,95.5 L55.5,103.78 L37.56,95.5 Z"/><path d="M6,87.35 L13,95 L6,102.65 L-1,95 Z"/><path d="M67.92,13.18 L78.17,5.18 L76.32,2.81 L66.08,10.82 Z"/></g><g transform="translate(155,0)"><path d="M20,14.4 L43,5.4 L43,91 L20,100 Z"/><path d="M0,8.55 L63,3.6 L63,9.58 L0,14.53 Z"/><path d="M2,1.8 L7.6,8.1 L2,14.4 L-3.6,8.1 Z"/><path d="M61,-1.8 L66.6,4.5 L61,10.8 L55.4,4.5 Z"/><path d="M31.5,87.22 L49.44,95.5 L31.5,103.78 L13.56,95.5 Z"/></g><g transform="translate(231.5,0)"><path d="M0,9 L23,0 L23,91 L0,100 Z"/><path d="M7.82,-1.8 L22.08,5.58 L7.82,12.96 L-6.44,5.58 Z"/><path d="M11.5,87.22 L29.44,95.5 L11.5,103.78 L-6.44,95.5 Z"/><path d="M23.92,13.18 L34.17,5.18 L32.32,2.81 L22.08,10.82 Z"/></g><g transform="translate(268,0)"><path d="M0,19.35 L23,10.35 L23,80.65 L0,89.65 Z"/><path d="M42,19.35 L65,10.35 L65,80.65 L42,89.65 Z"/><path d="M0,8.19 L65,4.14 L65,10.12 L0,14.17 Z"/><path d="M0,79.39 L65,83.44 L65,89.42 L0,85.37 Z"/><path d="M32.5,0.58 L38.8,5.98 L32.5,11.38 L26.2,5.98 Z"/><path d="M32.5,88.62 L38.8,94.02 L32.5,99.42 L26.2,94.02 Z"/></g><g transform="translate(346.5,0)"><path d="M0,9 L23,0 L23,91 L0,100 Z"/><path d="M38,9 L61,0 L61,91 L38,100 Z"/><path d="M1.28,15.62 L44.8,93.62 L54.2,88.38 L10.68,10.38 Z"/><path d="M7.82,-1.8 L22.08,5.58 L7.82,12.96 L-6.44,5.58 Z"/><path d="M45.82,-1.8 L60.08,5.58 L45.82,12.96 L31.56,5.58 Z"/><path d="M11.5,87.22 L29.44,95.5 L11.5,103.78 L-6.44,95.5 Z"/><path d="M49.5,87.22 L67.44,95.5 L49.5,103.78 L31.56,95.5 Z"/><path d="M23.92,13.18 L34.17,5.18 L32.32,2.81 L22.08,10.82 Z"/></g><g transform="translate(421,0)"><path d="M3,8.1 L59,3.15 L59,21.09 L3,26.04 Z"/><path d="M4.32,36.8 L40.32,74.8 L54.68,61.2 L18.68,23.2 Z"/><path d="M0,76.65 L56,81.6 L56,99.54 L0,94.59 Z"/><path d="M59,-0.45 L65.65,6.75 L59,13.95 L52.35,6.75 Z"/><path d="M1,87.85 L7.65,95.05 L1,102.25 L-5.65,95.05 Z"/><path d="M55.98,13.2 L49.2,21.87 L51.25,23.47 L58.02,14.8 Z"/></g></g></g><g clip-path="url(#q13-5)" transform="translate(9.1,0)"><g transform="translate(75,414.57) scale(1.77)"><g transform="translate(0,0)"><path d="M0,9 L23,0 L23,91 L0,100 Z"/><path d="M38,9 L61,0 L61,91 L38,100 Z"/><path d="M1.28,15.62 L44.8,93.62 L54.2,88.38 L10.68,10.38 Z"/><path d="M7.82,-1.8 L22.08,5.58 L7.82,12.96 L-6.44,5.58 Z"/><path d="M45.82,-1.8 L60.08,5.58 L45.82,12.96 L31.56,5.58 Z"/><path d="M11.5,87.22 L29.44,95.5 L11.5,103.78 L-6.44,95.5 Z"/><path d="M49.5,87.22 L67.44,95.5 L49.5,103.78 L31.56,95.5 Z"/><path d="M23.92,13.18 L34.17,5.18 L32.32,2.81 L22.08,10.82 Z"/></g><g transform="translate(74.5,0)"><path d="M44,9 L67,0 L67,91 L44,100 Z"/><path d="M39.76,3.72 L-5.22,90.72 L15.22,101.28 L60.2,14.28 Z"/><path d="M8,55.3 L67,58 L67,63.98 L8,61.28 Z"/><path d="M51.82,-1.8 L66.08,5.58 L51.82,12.96 L37.56,5.58 Z"/><path d="M55.5,87.22 L73.44,95.5 L55.5,103.78 L37.56,95.5 Z"/><path d="M6,87.35 L13,95 L6,102.65 L-1,95 Z"/><path d="M67.92,13.18 L78.17,5.18 L76.32,2.81 L66.08,10.82 Z"/></g><g transform="translate(155,0)"><path d="M20,14.4 L43,5.4 L43,91 L20,100 Z"/><path d="M0,8.55 L63,3.6 L63,9.58 L0,14.53 Z"/><path d="M2,1.8 L7.6,8.1 L2,14.4 L-3.6,8.1 Z"/><path d="M61,-1.8 L66.6,4.5 L61,10.8 L55.4,4.5 Z"/><path d="M31.5,87.22 L49.44,95.5 L31.5,103.78 L13.56,95.5 Z"/></g><g transform="translate(231.5,0)"><path d="M0,9 L23,0 L23,91 L0,100 Z"/><path d="M7.82,-1.8 L22.08,5.58 L7.82,12.96 L-6.44,5.58 Z"/><path d="M11.5,87.22 L29.44,95.5 L11.5,103.78 L-6.44,95.5 Z"/><path d="M23.92,13.18 L34.17,5.18 L32.32,2.81 L22.08,10.82 Z"/></g><g transform="translate(268,0)"><path d="M0,19.35 L23,10.35 L23,80.65 L0,89.65 Z"/><path d="M42,19.35 L65,10.35 L65,80.65 L42,89.65 Z"/><path d="M0,8.19 L65,4.14 L65,10.12 L0,14.17 Z"/><path d="M0,79.39 L65,83.44 L65,89.42 L0,85.37 Z"/><path d="M32.5,0.58 L38.8,5.98 L32.5,11.38 L26.2,5.98 Z"/><path d="M32.5,88.62 L38.8,94.02 L32.5,99.42 L26.2,94.02 Z"/></g><g transform="translate(346.5,0)"><path d="M0,9 L23,0 L23,91 L0,100 Z"/><path d="M38,9 L61,0 L61,91 L38,100 Z"/><path d="M1.28,15.62 L44.8,93.62 L54.2,88.38 L10.68,10.38 Z"/><path d="M7.82,-1.8 L22.08,5.58 L7.82,12.96 L-6.44,5.58 Z"/><path d="M45.82,-1.8 L60.08,5.58 L45.82,12.96 L31.56,5.58 Z"/><path d="M11.5,87.22 L29.44,95.5 L11.5,103.78 L-6.44,95.5 Z"/><path d="M49.5,87.22 L67.44,95.5 L49.5,103.78 L31.56,95.5 Z"/><path d="M23.92,13.18 L34.17,5.18 L32.32,2.81 L22.08,10.82 Z"/></g><g transform="translate(421,0)"><path d="M3,8.1 L59,3.15 L59,21.09 L3,26.04 Z"/><path d="M4.32,36.8 L40.32,74.8 L54.68,61.2 L18.68,23.2 Z"/><path d="M0,76.65 L56,81.6 L56,99.54 L0,94.59 Z"/><path d="M59,-0.45 L65.65,6.75 L59,13.95 L52.35,6.75 Z"/><path d="M1,87.85 L7.65,95.05 L1,102.25 L-5.65,95.05 Z"/><path d="M55.98,13.2 L49.2,21.87 L51.25,23.47 L58.02,14.8 Z"/></g></g></g><g clip-path="url(#q13-6)" transform="translate(2.02,0)"><g transform="translate(75,414.57) scale(1.77)"><g transform="translate(0,0)"><path d="M0,9 L23,0 L23,91 L0,100 Z"/><path d="M38,9 L61,0 L61,91 L38,100 Z"/><path d="M1.28,15.62 L44.8,93.62 L54.2,88.38 L10.68,10.38 Z"/><path d="M7.82,-1.8 L22.08,5.58 L7.82,12.96 L-6.44,5.58 Z"/><path d="M45.82,-1.8 L60.08,5.58 L45.82,12.96 L31.56,5.58 Z"/><path d="M11.5,87.22 L29.44,95.5 L11.5,103.78 L-6.44,95.5 Z"/><path d="M49.5,87.22 L67.44,95.5 L49.5,103.78 L31.56,95.5 Z"/><path d="M23.92,13.18 L34.17,5.18 L32.32,2.81 L22.08,10.82 Z"/></g><g transform="translate(74.5,0)"><path d="M44,9 L67,0 L67,91 L44,100 Z"/><path d="M39.76,3.72 L-5.22,90.72 L15.22,101.28 L60.2,14.28 Z"/><path d="M8,55.3 L67,58 L67,63.98 L8,61.28 Z"/><path d="M51.82,-1.8 L66.08,5.58 L51.82,12.96 L37.56,5.58 Z"/><path d="M55.5,87.22 L73.44,95.5 L55.5,103.78 L37.56,95.5 Z"/><path d="M6,87.35 L13,95 L6,102.65 L-1,95 Z"/><path d="M67.92,13.18 L78.17,5.18 L76.32,2.81 L66.08,10.82 Z"/></g><g transform="translate(155,0)"><path d="M20,14.4 L43,5.4 L43,91 L20,100 Z"/><path d="M0,8.55 L63,3.6 L63,9.58 L0,14.53 Z"/><path d="M2,1.8 L7.6,8.1 L2,14.4 L-3.6,8.1 Z"/><path d="M61,-1.8 L66.6,4.5 L61,10.8 L55.4,4.5 Z"/><path d="M31.5,87.22 L49.44,95.5 L31.5,103.78 L13.56,95.5 Z"/></g><g transform="translate(231.5,0)"><path d="M0,9 L23,0 L23,91 L0,100 Z"/><path d="M7.82,-1.8 L22.08,5.58 L7.82,12.96 L-6.44,5.58 Z"/><path d="M11.5,87.22 L29.44,95.5 L11.5,103.78 L-6.44,95.5 Z"/><path d="M23.92,13.18 L34.17,5.18 L32.32,2.81 L22.08,10.82 Z"/></g><g transform="translate(268,0)"><path d="M0,19.35 L23,10.35 L23,80.65 L0,89.65 Z"/><path d="M42,19.35 L65,10.35 L65,80.65 L42,89.65 Z"/><path d="M0,8.19 L65,4.14 L65,10.12 L0,14.17 Z"/><path d="M0,79.39 L65,83.44 L65,89.42 L0,85.37 Z"/><path d="M32.5,0.58 L38.8,5.98 L32.5,11.38 L26.2,5.98 Z"/><path d="M32.5,88.62 L38.8,94.02 L32.5,99.42 L26.2,94.02 Z"/></g><g transform="translate(346.5,0)"><path d="M0,9 L23,0 L23,91 L0,100 Z"/><path d="M38,9 L61,0 L61,91 L38,100 Z"/><path d="M1.28,15.62 L44.8,93.62 L54.2,88.38 L10.68,10.38 Z"/><path d="M7.82,-1.8 L22.08,5.58 L7.82,12.96 L-6.44,5.58 Z"/><path d="M45.82,-1.8 L60.08,5.58 L45.82,12.96 L31.56,5.58 Z"/><path d="M11.5,87.22 L29.44,95.5 L11.5,103.78 L-6.44,95.5 Z"/><path d="M49.5,87.22 L67.44,95.5 L49.5,103.78 L31.56,95.5 Z"/><path d="M23.92,13.18 L34.17,5.18 L32.32,2.81 L22.08,10.82 Z"/></g><g transform="translate(421,0)"><path d="M3,8.1 L59,3.15 L59,21.09 L3,26.04 Z"/><path d="M4.32,36.8 L40.32,74.8 L54.68,61.2 L18.68,23.2 Z"/><path d="M0,76.65 L56,81.6 L56,99.54 L0,94.59 Z"/><path d="M59,-0.45 L65.65,6.75 L59,13.95 L52.35,6.75 Z"/><path d="M1,87.85 L7.65,95.05 L1,102.25 L-5.65,95.05 Z"/><path d="M55.98,13.2 L49.2,21.87 L51.25,23.47 L58.02,14.8 Z"/></g></g></g><line x1="500" y1="647.65" x2="500" y2="1142" stroke="currentColor" stroke-width="1.6"/><line x1="476" y1="647.65" x2="524" y2="647.65" stroke="currentColor" stroke-width="2.2"/><line x1="487.52" y1="688.85" x2="512.48" y2="688.85" stroke="currentColor" stroke-width="1.2"/><line x1="487.52" y1="730.05" x2="512.48" y2="730.05" stroke="currentColor" stroke-width="1.2"/><line x1="476" y1="771.24" x2="524" y2="771.24" stroke="currentColor" stroke-width="2.2"/><line x1="487.52" y1="812.44" x2="512.48" y2="812.44" stroke="currentColor" stroke-width="1.2"/><line x1="487.52" y1="853.63" x2="512.48" y2="853.63" stroke="currentColor" stroke-width="1.2"/><line x1="476" y1="894.83" x2="524" y2="894.83" stroke="currentColor" stroke-width="2.2"/><line x1="487.52" y1="936.02" x2="512.48" y2="936.02" stroke="currentColor" stroke-width="1.2"/><line x1="487.52" y1="977.22" x2="512.48" y2="977.22" stroke="currentColor" stroke-width="1.2"/><line x1="476" y1="1018.41" x2="524" y2="1018.41" stroke="currentColor" stroke-width="2.2"/><line x1="487.52" y1="1059.61" x2="512.48" y2="1059.61" stroke="currentColor" stroke-width="1.2"/><line x1="487.52" y1="1100.8" x2="512.48" y2="1100.8" stroke="currentColor" stroke-width="1.2"/><line x1="476" y1="1142" x2="524" y2="1142" stroke="currentColor" stroke-width="2.2"/><text x="500" y="1208" text-anchor="middle" font-family="Georgia,'Times New Roman',serif" font-size="42" letter-spacing="14" fill="currentColor" opacity="1">MIDE · NO CREAS</text><text x="500" y="1264" text-anchor="middle" font-family="Georgia,'Times New Roman',serif" font-size="20" letter-spacing="9" fill="currentColor" opacity="0.48">36 DECANATOS · 12 DIVISIONES</text></g></g>
</svg>
