<svg xmlns="http://www.w3.org/2000/svg" width="600" height="600" viewBox="0 0 600 600">
  <g fill="none" stroke="#ff00e5" color="#ff00e5" stroke-linecap="round" stroke-linejoin="round">
    <line x1="120" y1="132" x2="480" y2="132" stroke-width="2.6"/><line x1="120" y1="132" x2="120" y2="117" stroke-width="1.6"/><line x1="135" y1="132" x2="135" y2="125" stroke-width="1" opacity="0.6"/><line x1="150" y1="132" x2="150" y2="125" stroke-width="1" opacity="0.6"/><line x1="165" y1="132" x2="165" y2="125" stroke-width="1" opacity="0.6"/><line x1="180" y1="132" x2="180" y2="125" stroke-width="1" opacity="0.6"/><line x1="195" y1="132" x2="195" y2="125" stroke-width="1" opacity="0.6"/><line x1="210" y1="132" x2="210" y2="117" stroke-width="1.6"/><line x1="225" y1="132" x2="225" y2="125" stroke-width="1" opacity="0.6"/><line x1="240" y1="132" x2="240" y2="125" stroke-width="1" opacity="0.6"/><line x1="255" y1="132" x2="255" y2="125" stroke-width="1" opacity="0.6"/><line x1="270" y1="132" x2="270" y2="125" stroke-width="1" opacity="0.6"/><line x1="285" y1="132" x2="285" y2="125" stroke-width="1" opacity="0.6"/><line x1="300" y1="132" x2="300" y2="117" stroke-width="1.6"/><line x1="315" y1="132" x2="315" y2="125" stroke-width="1" opacity="0.6"/><line x1="330" y1="132" x2="330" y2="125" stroke-width="1" opacity="0.6"/><line x1="345" y1="132" x2="345" y2="125" stroke-width="1" opacity="0.6"/><line x1="360" y1="132" x2="360" y2="125" stroke-width="1" opacity="0.6"/><line x1="375" y1="132" x2="375" y2="125" stroke-width="1" opacity="0.6"/><line x1="390" y1="132" x2="390" y2="117" stroke-width="1.6"/><line x1="405" y1="132" x2="405" y2="125" stroke-width="1" opacity="0.6"/><line x1="420" y1="132" x2="420" y2="125" stroke-width="1" opacity="0.6"/><line x1="435" y1="132" x2="435" y2="125" stroke-width="1" opacity="0.6"/><line x1="450" y1="132" x2="450" y2="125" stroke-width="1" opacity="0.6"/><line x1="465" y1="132" x2="465" y2="125" stroke-width="1" opacity="0.6"/><line x1="480" y1="132" x2="480" y2="117" stroke-width="1.6"/><circle cx="120" cy="132" r="6" fill="none" stroke-width="1.8"/><circle cx="480" cy="132" r="6" fill="none" stroke-width="1.8"/><line x1="146" y1="144" x2="300" y2="452" stroke-width="3"/><line x1="157.85" y1="167.69" x2="164.11" y2="164.56" stroke-width="1" opacity="0.6"/><line x1="169.69" y1="191.38" x2="175.95" y2="188.25" stroke-width="1" opacity="0.6"/><line x1="181.54" y1="215.08" x2="194.06" y2="208.82" stroke-width="1.5"/><line x1="193.38" y1="238.77" x2="199.65" y2="235.64" stroke-width="1" opacity="0.6"/><line x1="205.23" y1="262.46" x2="211.49" y2="259.33" stroke-width="1" opacity="0.6"/><line x1="217.08" y1="286.15" x2="229.6" y2="279.89" stroke-width="1.5"/><line x1="228.92" y1="309.85" x2="235.18" y2="306.72" stroke-width="1" opacity="0.6"/><line x1="240.77" y1="333.54" x2="247.03" y2="330.41" stroke-width="1" opacity="0.6"/><line x1="252.62" y1="357.23" x2="265.14" y2="350.97" stroke-width="1.5"/><line x1="264.46" y1="380.92" x2="270.72" y2="377.79" stroke-width="1" opacity="0.6"/><line x1="276.31" y1="404.62" x2="282.57" y2="401.48" stroke-width="1" opacity="0.6"/><line x1="288.15" y1="428.31" x2="300.68" y2="422.05" stroke-width="1.5"/><line x1="454" y1="144" x2="300" y2="452" stroke-width="3"/><line x1="442.15" y1="167.69" x2="435.89" y2="164.56" stroke-width="1" opacity="0.6"/><line x1="430.31" y1="191.38" x2="424.05" y2="188.25" stroke-width="1" opacity="0.6"/><line x1="418.46" y1="215.08" x2="405.94" y2="208.82" stroke-width="1.5"/><line x1="406.62" y1="238.77" x2="400.35" y2="235.64" stroke-width="1" opacity="0.6"/><line x1="394.77" y1="262.46" x2="388.51" y2="259.33" stroke-width="1" opacity="0.6"/><line x1="382.92" y1="286.15" x2="370.4" y2="279.89" stroke-width="1.5"/><line x1="371.08" y1="309.85" x2="364.82" y2="306.72" stroke-width="1" opacity="0.6"/><line x1="359.23" y1="333.54" x2="352.97" y2="330.41" stroke-width="1" opacity="0.6"/><line x1="347.38" y1="357.23" x2="334.86" y2="350.97" stroke-width="1.5"/><line x1="335.54" y1="380.92" x2="329.28" y2="377.79" stroke-width="1" opacity="0.6"/><line x1="323.69" y1="404.62" x2="317.43" y2="401.48" stroke-width="1" opacity="0.6"/><line x1="311.85" y1="428.31" x2="299.32" y2="422.05" stroke-width="1.5"/><line x1="300" y1="166" x2="300" y2="430" stroke-width="2.4"/><line x1="289" y1="166" x2="311" y2="166" stroke-width="1.5"/><line x1="295.05" y1="186" x2="304.95" y2="186" stroke-width="1" opacity="0.6"/><line x1="295.05" y1="206" x2="304.95" y2="206" stroke-width="1" opacity="0.6"/><line x1="295.05" y1="226" x2="304.95" y2="226" stroke-width="1" opacity="0.6"/><line x1="289" y1="246" x2="311" y2="246" stroke-width="1.5"/><line x1="295.05" y1="266" x2="304.95" y2="266" stroke-width="1" opacity="0.6"/><line x1="295.05" y1="286" x2="304.95" y2="286" stroke-width="1" opacity="0.6"/><line x1="295.05" y1="306" x2="304.95" y2="306" stroke-width="1" opacity="0.6"/><line x1="289" y1="326" x2="311" y2="326" stroke-width="1.5"/><line x1="295.05" y1="346" x2="304.95" y2="346" stroke-width="1" opacity="0.6"/><line x1="295.05" y1="366" x2="304.95" y2="366" stroke-width="1" opacity="0.6"/><line x1="295.05" y1="386" x2="304.95" y2="386" stroke-width="1" opacity="0.6"/><line x1="289" y1="406" x2="311" y2="406" stroke-width="1.5"/><line x1="295.05" y1="426" x2="304.95" y2="426" stroke-width="1" opacity="0.6"/><line x1="300" y1="430" x2="300" y2="520" stroke-width="2.4"/><path d="M300 545 L291 518 L309 518 Z" fill="currentColor" stroke="none"/><circle cx="300" cy="140" r="26" fill="none" stroke-width="2"/><circle cx="300" cy="140" r="16.12" fill="none" stroke-width="1.2" opacity="0.75"/><circle cx="300" cy="140" r="4.16" fill="none" stroke-width="1.6"/><line x1="300" y1="135.84" x2="300" y2="123.88" stroke-width="1.1" opacity="0.8"/><line x1="302.08" y1="136.4" x2="308.06" y2="126.04" stroke-width="1.1" opacity="0.8"/><line x1="303.6" y1="137.92" x2="313.96" y2="131.94" stroke-width="1.1" opacity="0.8"/><line x1="304.16" y1="140" x2="316.12" y2="140" stroke-width="1.1" opacity="0.8"/><line x1="303.6" y1="142.08" x2="313.96" y2="148.06" stroke-width="1.1" opacity="0.8"/><line x1="302.08" y1="143.6" x2="308.06" y2="153.96" stroke-width="1.1" opacity="0.8"/><line x1="300" y1="144.16" x2="300" y2="156.12" stroke-width="1.1" opacity="0.8"/><line x1="297.92" y1="143.6" x2="291.94" y2="153.96" stroke-width="1.1" opacity="0.8"/><line x1="296.4" y1="142.08" x2="286.04" y2="148.06" stroke-width="1.1" opacity="0.8"/><line x1="295.84" y1="140" x2="283.88" y2="140" stroke-width="1.1" opacity="0.8"/><line x1="296.4" y1="137.92" x2="286.04" y2="131.94" stroke-width="1.1" opacity="0.8"/><line x1="297.92" y1="136.4" x2="291.94" y2="126.04" stroke-width="1.1" opacity="0.8"/><line x1="300" y1="114" x2="300" y2="117.64" stroke-width="1.6"/><line x1="304.51" y1="114.39" x2="304.2" y2="116.19" stroke-width="1" opacity="0.7"/><line x1="308.89" y1="115.57" x2="308.27" y2="117.28" stroke-width="1" opacity="0.7"/><line x1="313" y1="117.48" x2="311.18" y2="120.64" stroke-width="1.6"/><line x1="316.71" y1="120.08" x2="315.54" y2="121.48" stroke-width="1" opacity="0.7"/><line x1="319.92" y1="123.29" x2="318.52" y2="124.46" stroke-width="1" opacity="0.7"/><line x1="322.52" y1="127" x2="319.36" y2="128.82" stroke-width="1.6"/><line x1="324.43" y1="131.11" x2="322.72" y2="131.73" stroke-width="1" opacity="0.7"/><line x1="325.61" y1="135.49" x2="323.81" y2="135.8" stroke-width="1" opacity="0.7"/><line x1="326" y1="140" x2="322.36" y2="140" stroke-width="1.6"/><line x1="325.61" y1="144.51" x2="323.81" y2="144.2" stroke-width="1" opacity="0.7"/><line x1="324.43" y1="148.89" x2="322.72" y2="148.27" stroke-width="1" opacity="0.7"/><line x1="322.52" y1="153" x2="319.36" y2="151.18" stroke-width="1.6"/><line x1="319.92" y1="156.71" x2="318.52" y2="155.54" stroke-width="1" opacity="0.7"/><line x1="316.71" y1="159.92" x2="315.54" y2="158.52" stroke-width="1" opacity="0.7"/><line x1="313" y1="162.52" x2="311.18" y2="159.36" stroke-width="1.6"/><line x1="308.89" y1="164.43" x2="308.27" y2="162.72" stroke-width="1" opacity="0.7"/><line x1="304.51" y1="165.61" x2="304.2" y2="163.81" stroke-width="1" opacity="0.7"/><line x1="300" y1="166" x2="300" y2="162.36" stroke-width="1.6"/><line x1="295.49" y1="165.61" x2="295.8" y2="163.81" stroke-width="1" opacity="0.7"/><line x1="291.11" y1="164.43" x2="291.73" y2="162.72" stroke-width="1" opacity="0.7"/><line x1="287" y1="162.52" x2="288.82" y2="159.36" stroke-width="1.6"/><line x1="283.29" y1="159.92" x2="284.46" y2="158.52" stroke-width="1" opacity="0.7"/><line x1="280.08" y1="156.71" x2="281.48" y2="155.54" stroke-width="1" opacity="0.7"/><line x1="277.48" y1="153" x2="280.64" y2="151.18" stroke-width="1.6"/><line x1="275.57" y1="148.89" x2="277.28" y2="148.27" stroke-width="1" opacity="0.7"/><line x1="274.39" y1="144.51" x2="276.19" y2="144.2" stroke-width="1" opacity="0.7"/><line x1="274" y1="140" x2="277.64" y2="140" stroke-width="1.6"/><line x1="274.39" y1="135.49" x2="276.19" y2="135.8" stroke-width="1" opacity="0.7"/><line x1="275.57" y1="131.11" x2="277.28" y2="131.73" stroke-width="1" opacity="0.7"/><line x1="277.48" y1="127" x2="280.64" y2="128.82" stroke-width="1.6"/><line x1="280.08" y1="123.29" x2="281.48" y2="124.46" stroke-width="1" opacity="0.7"/><line x1="283.29" y1="120.08" x2="284.46" y2="121.48" stroke-width="1" opacity="0.7"/><line x1="287" y1="117.48" x2="288.82" y2="120.64" stroke-width="1.6"/><line x1="291.11" y1="115.57" x2="291.73" y2="117.28" stroke-width="1" opacity="0.7"/><line x1="295.49" y1="114.39" x2="295.8" y2="116.19" stroke-width="1" opacity="0.7"/>
  </g>
</svg>
